<?xml version="1.0" encoding="UTF-8" standalone="no"?>
<!DOCTYPE svg PUBLIC "-//W3C//DTD SVG 1.1//EN" "http://www.w3.org/Graphics/SVG/1.1/DTD/svg11.dtd">
<svg xmlns="http://www.w3.org/2000/svg" version="1.1" viewBox="0.00 0.00 100.00 100.00">
<g stroke-width="2.00" fill="none" stroke-linecap="butt">
<path stroke="#808080" vector-effect="non-scaling-stroke" d="
  M 82.66 23.98
  L 49.67 5.58
  Q 49.25 5.35 48.88 5.67
  L 8.57 41.11
  A 0.40 0.40 0.0 0 0 8.45 41.52
  L 17.80 75.24
  A 2.57 2.54 -83.0 0 0 18.98 76.77
  L 50.27 94.97
  Q 50.93 95.36 51.53 94.88
  Q 72.33 78.27 91.92 60.23
  Q 92.32 59.86 92.19 59.33
  L 83.19 24.67
  Q 83.07 24.21 82.66 23.98"
/>
<path stroke="#808080" vector-effect="non-scaling-stroke" d="
  M 32.77 23.00
  Q 32.78 22.71 32.58 22.48
  A 0.46 0.45 48.1 0 0 31.93 22.44
  L 10.92 40.95
  A 0.54 0.53 -48.8 0 0 10.97 41.79
  L 15.86 45.19
  A 0.73 0.73 0.0 0 0 16.94 44.89
  Q 17.53 43.62 18.68 42.66
  Q 18.82 42.54 18.95 42.54
  Q 19.24 42.54 19.37 42.88
  A 0.44 0.42 -36.4 0 1 19.30 43.29
  L 17.42 45.68
  Q 17.36 45.74 17.38 45.83
  Q 17.45 46.25 17.90 46.39
  A 0.50 0.49 34.0 0 0 18.32 46.31
  L 19.43 45.43
  Q 19.77 45.16 20.15 45.37
  Q 20.53 45.59 20.55 45.99
  Q 20.57 46.53 20.03 46.48
  Q 19.51 46.42 19.09 46.72
  A 0.43 0.43 0.0 0 0 19.09 47.42
  L 38.80 60.97
  A 0.33 0.32 21.9 0 0 39.31 60.76
  L 45.17 26.04
  A 0.88 0.87 23.0 0 0 44.82 25.19
  L 42.36 23.42
  Q 42.14 23.27 42.22 23.01
  L 42.33 22.67
  Q 42.51 22.12 42.95 22.49
  L 44.92 24.15
  A 0.40 0.40 0.0 0 0 45.58 23.91
  L 48.19 8.53
  A 0.16 0.16 0.0 0 0 47.93 8.38
  L 38.09 17.04
  A 0.91 0.91 0.0 0 0 37.93 18.22
  C 38.68 19.36 39.70 20.04 40.75 20.89
  Q 41.00 21.10 40.78 21.34
  L 40.52 21.64
  Q 40.31 21.87 40.07 21.67
  L 36.97 19.08
  Q 36.15 18.40 35.58 19.30
  L 33.12 23.14
  Q 32.74 23.73 32.77 23.00"
/>
<path stroke="#808080" vector-effect="non-scaling-stroke" d="
  M 76.34 48.01
  L 79.21 50.11
  A 0.23 0.23 0.0 0 0 79.49 50.11
  L 79.70 49.93
  Q 79.73 49.90 79.71 49.87
  Q 73.89 42.10 68.38 34.17
  A 0.47 0.47 0.0 0 0 67.62 34.15
  Q 66.90 35.06 65.83 35.47
  Q 65.43 35.62 65.38 35.19
  L 65.34 34.89
  Q 65.29 34.50 65.64 34.31
  L 67.09 33.55
  Q 67.71 33.22 67.30 32.66
  L 59.58 21.89
  A 0.97 0.96 68.6 0 0 58.70 21.50
  Q 56.81 21.69 54.97 21.20
  A 0.45 0.45 0.0 0 1 54.75 20.47
  Q 55.28 19.88 56.26 20.33
  Q 57.23 20.77 58.05 20.58
  Q 58.60 20.46 58.27 20.00
  L 50.47 9.03
  Q 49.75 8.02 49.55 9.24
  L 47.99 18.70
  A 0.52 0.51 -82.7 0 0 48.45 19.30
  L 52.10 19.63
  Q 52.52 19.67 52.43 20.08
  L 52.32 20.53
  A 0.32 0.31 9.9 0 1 51.97 20.77
  L 48.25 20.26
  Q 47.73 20.19 47.64 20.72
  L 44.35 40.00
  Q 44.22 40.80 45.00 40.57
  L 48.25 39.63
  Q 48.50 39.56 48.61 39.80
  L 48.79 40.19
  Q 48.91 40.47 48.62 40.55
  L 44.64 41.66
  Q 44.07 41.82 43.97 42.40
  L 40.76 61.26
  A 0.18 0.18 0.0 0 0 40.98 61.47
  L 56.79 58.01
  Q 57.30 57.90 57.28 57.37
  Q 57.25 56.40 57.82 55.62
  A 0.29 0.28 -39.6 0 1 58.31 55.66
  Q 58.61 56.29 58.37 56.91
  Q 58.04 57.76 58.93 57.56
  L 79.71 53.01
  Q 82.98 52.29 79.81 51.23
  Q 77.60 50.49 75.88 48.50
  A 0.34 0.34 0.0 0 1 76.34 48.01"
/>
<path stroke="#808080" vector-effect="non-scaling-stroke" d="
  M 77.63 27.22
  Q 77.61 27.02 77.78 26.91
  L 78.94 26.23
  Q 81.55 24.67 78.51 24.60
  Q 77.82 24.58 76.62 24.47
  A 0.49 0.48 84.6 0 1 76.20 24.11
  L 76.11 23.74
  Q 75.97 23.20 76.52 23.33
  L 78.02 23.71
  Q 78.30 23.78 78.41 23.51
  L 78.51 23.25
  Q 78.51 23.25 78.34 23.15
  Q 65.67 16.27 53.15 9.12
  Q 51.60 8.24 52.64 9.68
  L 81.37 49.96
  Q 82.00 50.84 81.98 49.75
  L 81.67 26.74
  Q 81.66 25.62 80.73 26.25
  L 78.14 28.02
  Q 77.77 28.28 77.71 27.83
  L 77.63 27.22"
/>
<path stroke="#808080" vector-effect="non-scaling-stroke" d="
  M 90.21 57.77
  L 84.08 33.90
  Q 83.21 30.49 83.25 34.02
  L 83.50 52.49
  Q 83.51 52.77 83.72 52.94
  L 90.05 57.88
  A 0.10 0.10 0.0 0 0 90.21 57.77"
/>
<path stroke="#808080" vector-effect="non-scaling-stroke" d="
  M 18.75 50.69
  Q 18.40 50.65 18.19 50.29
  Q 15.64 45.95 11.06 43.73
  Q 10.59 43.50 10.73 44.00
  L 16.76 65.98
  Q 17.28 67.90 17.59 65.91
  Q 17.62 65.76 17.37 64.52
  Q 17.30 64.15 17.67 64.07
  L 18.00 64.00
  A 0.30 0.30 0.0 0 1 18.36 64.27
  L 18.59 67.20
  Q 18.63 67.71 18.31 68.10
  Q 17.32 69.31 18.06 70.49
  C 18.95 71.92 19.11 72.34 19.01 73.87
  A 0.52 0.52 0.0 0 0 19.81 74.34
  L 30.08 67.78
  A 0.76 0.76 0.0 0 0 30.16 66.57
  Q 29.22 65.79 28.62 64.77
  A 0.43 0.43 0.0 0 1 29.08 64.13
  Q 29.61 64.24 29.98 64.80
  Q 30.70 65.91 31.07 66.46
  Q 31.42 66.97 31.94 66.64
  L 37.98 62.81
  Q 38.48 62.50 37.99 62.17
  L 18.91 48.98
  Q 18.01 48.36 18.53 49.32
  L 19.04 50.25
  Q 19.31 50.74 18.75 50.69"
/>
<path stroke="#808080" vector-effect="non-scaling-stroke" d="
  M 56.97 60.33
  L 56.75 60.09
  Q 56.36 59.68 55.80 59.80
  L 42.22 62.73
  A 0.43 0.43 0.0 0 0 42.04 63.49
  L 53.65 72.87
  A 0.53 0.53 0.0 0 0 54.51 72.44
  Q 54.46 71.18 54.87 69.98
  A 0.40 0.40 0.0 0 1 55.64 70.05
  Q 55.89 71.81 55.11 73.40
  A 0.69 0.68 33.3 0 0 55.29 74.23
  L 64.41 81.68
  A 0.48 0.48 0.0 0 0 65.13 81.56
  L 81.11 54.50
  A 0.14 0.14 0.0 0 0 80.97 54.29
  L 58.44 59.22
  Q 58.01 59.32 57.86 59.72
  L 57.69 60.18
  Q 57.45 60.83 56.97 60.33"
/>
<path stroke="#808080" vector-effect="non-scaling-stroke" d="
  M 82.53 54.94
  L 68.81 78.09
  Q 67.83 79.74 69.27 78.47
  L 89.72 60.41
  Q 90.41 59.80 89.67 59.25
  L 83.66 54.71
  Q 82.97 54.20 82.53 54.94"
/>
<path stroke="#808080" vector-effect="non-scaling-stroke" d="
  M 37.55 75.80
  Q 38.10 75.90 38.37 76.41
  C 39.06 77.72 39.67 78.35 41.24 78.59
  Q 46.78 79.42 52.45 80.32
  A 0.65 0.65 0.0 0 0 53.20 79.75
  L 53.44 77.47
  Q 53.52 76.71 54.15 77.14
  L 54.46 77.35
  A 0.54 0.54 0.0 0 1 54.65 78.03
  L 53.85 79.75
  A 0.60 0.60 0.0 0 0 54.30 80.59
  L 60.56 81.64
  Q 62.58 81.98 60.99 80.69
  L 40.10 63.69
  Q 39.76 63.41 39.38 63.65
  L 21.79 74.74
  Q 20.74 75.40 21.97 75.59
  L 37.53 77.99
  A 0.36 0.36 0.0 0 0 37.85 77.39
  Q 37.41 76.91 37.15 76.31
  Q 36.86 75.67 37.55 75.80"
/>
<path stroke="#808080" vector-effect="non-scaling-stroke" d="
  M 51.52 91.71
  L 51.57 92.11
  A 0.44 0.43 -23.6 0 0 52.27 92.38
  L 62.82 83.99
  A 0.29 0.28 29.8 0 0 62.68 83.49
  L 24.41 77.48
  Q 22.50 77.18 24.17 78.15
  L 49.76 92.99
  Q 50.91 93.65 50.57 92.31
  Q 50.47 91.94 50.91 91.51
  Q 51.42 91.01 51.52 91.71"
/>
<path stroke="#808080" vector-effect="non-scaling-stroke" d="
  M 40.48 18.37
  L 40.54 18.82
  A 0.24 0.24 0.0 0 0 40.74 19.03
  L 44.67 19.81
  Q 45.13 19.90 45.13 19.44
  L 45.13 19.18
  A 0.62 0.62 0.0 0 0 44.56 18.56
  L 40.65 18.20
  Q 40.46 18.18 40.48 18.37"
/>
<path stroke="#808080" vector-effect="non-scaling-stroke" d="
  M 28.1933 29.3197
  A 2.71 0.55 126.1 0 0 30.2344 27.4541
  A 2.71 0.55 126.1 0 0 31.3867 24.9403
  A 2.71 0.55 126.1 0 0 29.3456 26.8059
  A 2.71 0.55 126.1 0 0 28.1933 29.3197"
/>
<path stroke="#808080" vector-effect="non-scaling-stroke" d="
  M 24.1538 35.1301
  A 2.76 0.56 126.1 0 0 26.2325 33.2299
  A 2.76 0.56 126.1 0 0 27.4062 30.6699
  A 2.76 0.56 126.1 0 0 25.3275 32.5701
  A 2.76 0.56 126.1 0 0 24.1538 35.1301"
/>
<path stroke="#808080" vector-effect="non-scaling-stroke" d="
  M 23.53 36.92
  L 22.98 36.52
  A 0.18 0.18 0.0 0 0 22.73 36.55
  L 20.45 39.64
  A 1.19 0.42 -53.6 0 0 20.09 40.84
  L 20.25 40.96
  A 1.19 0.42 -53.6 0 0 21.29 40.25
  L 23.56 37.17
  A 0.18 0.18 0.0 0 0 23.53 36.92"
/>
<path stroke="#808080" vector-effect="non-scaling-stroke" d="
  M 41.5965 41.6458
  A 2.50 0.59 -10.7 0 0 39.0305 41.5303
  A 2.50 0.59 -10.7 0 0 36.6835 42.5742
  A 2.50 0.59 -10.7 0 0 39.2495 42.6897
  A 2.50 0.59 -10.7 0 0 41.5965 41.6458"
/>
<path stroke="#808080" vector-effect="non-scaling-stroke" d="
  M 34.71 43.20
  L 34.54 42.55
  A 0.19 0.19 0.0 0 0 34.31 42.41
  L 30.16 43.49
  A 0.56 0.43 -14.6 0 0 29.73 44.05
  L 29.78 44.24
  A 0.56 0.43 -14.6 0 0 30.43 44.52
  L 34.58 43.44
  A 0.19 0.19 0.0 0 0 34.71 43.20"
/>
<path stroke="#808080" vector-effect="non-scaling-stroke" d="
  M 27.4699 44.3495
  A 0.37 0.37 0.0 0 0 27.0392 44.0524
  L 23.0459 44.7853
  A 0.37 0.37 0.0 0 0 22.7487 45.2160
  L 22.8101 45.5505
  A 0.37 0.37 0.0 0 0 23.2408 45.8476
  L 27.2341 45.1147
  A 0.37 0.37 0.0 0 0 27.5313 44.6840
  L 27.4699 44.3495"
/>
<path stroke="#808080" vector-effect="non-scaling-stroke" d="
  M 52.2410 30.4272
  A 2.69 0.58 38.3 0 0 50.4895 28.3048
  A 2.69 0.58 38.3 0 0 48.0190 27.0928
  A 2.69 0.58 38.3 0 0 49.7705 29.2152
  A 2.69 0.58 38.3 0 0 52.2410 30.4272"
/>
<path stroke="#808080" vector-effect="non-scaling-stroke" d="
  M 57.6915 34.5952
  A 0.49 0.49 0.0 0 0 57.6047 33.9077
  L 54.3650 31.3948
  A 0.49 0.49 0.0 0 0 53.6775 31.4816
  L 53.6285 31.5448
  A 0.49 0.49 0.0 0 0 53.7153 32.2323
  L 56.9550 34.7452
  A 0.49 0.49 0.0 0 0 57.6425 34.6584
  L 57.6915 34.5952"
/>
<path stroke="#808080" vector-effect="non-scaling-stroke" d="
  M 59.49 36.05
  Q 59.89 37.73 60.86 39.16
  A 0.51 0.51 0.0 0 0 61.70 39.17
  L 63.50 36.54
  A 0.33 0.33 0.0 0 0 63.06 36.06
  L 61.78 36.79
  A 0.78 0.77 -37.7 0 1 60.87 36.68
  L 59.93 35.80
  Q 59.28 35.18 59.49 36.05"
/>
<path stroke="#808080" vector-effect="non-scaling-stroke" d="
  M 59.7551 38.0659
  A 0.90 0.59 -6.0 0 0 58.7983 37.5732
  A 0.90 0.59 -6.0 0 0 57.9649 38.2541
  A 0.90 0.59 -6.0 0 0 58.9217 38.7468
  A 0.90 0.59 -6.0 0 0 59.7551 38.0659"
/>
<path stroke="#808080" vector-effect="non-scaling-stroke" d="
  M 55.76 39.05
  L 55.59 38.31
  A 0.20 0.20 0.0 0 0 55.35 38.16
  L 55.18 38.20
  A 4.54 0.36 -12.9 0 0 50.83 39.56
  L 50.93 39.99
  A 4.54 0.36 -12.9 0 0 55.44 39.33
  L 55.61 39.29
  A 0.20 0.20 0.0 0 0 55.76 39.05"
/>
<path stroke="#808080" vector-effect="non-scaling-stroke" d="
  M 68.5280 42.7793
  A 2.72 0.59 36.8 0 0 66.7034 40.6776
  A 2.72 0.59 36.8 0 0 64.1720 39.5207
  A 2.72 0.59 36.8 0 0 65.9966 41.6224
  A 2.72 0.59 36.8 0 0 68.5280 42.7793"
/>
<path stroke="#808080" vector-effect="non-scaling-stroke" d="
  M 60.93 41.57
  L 60.42 41.64
  A 0.34 0.34 0.0 0 0 60.14 41.89
  L 59.23 45.80
  Q 59.05 46.55 59.82 46.48
  L 60.10 46.45
  A 0.25 0.24 1.4 0 0 60.32 46.25
  L 61.13 41.78
  Q 61.17 41.54 60.93 41.57"
/>
<path stroke="#808080" vector-effect="non-scaling-stroke" d="
  M 74.5162 47.1850
  A 2.82 0.57 37.2 0 0 72.6146 45.0260
  A 2.82 0.57 37.2 0 0 70.0238 43.7750
  A 2.82 0.57 37.2 0 0 71.9254 45.9340
  A 2.82 0.57 37.2 0 0 74.5162 47.1850"
/>
<path stroke="#808080" vector-effect="non-scaling-stroke" d="
  M 59.8072 49.1792
  A 0.41 0.41 0.0 0 0 59.4763 48.7030
  L 59.2008 48.6535
  A 0.41 0.41 0.0 0 0 58.7246 48.9844
  L 58.0128 52.9408
  A 0.41 0.41 0.0 0 0 58.3437 53.4170
  L 58.6192 53.4665
  A 0.41 0.41 0.0 0 0 59.0954 53.1356
  L 59.8072 49.1792"
/>
<path stroke="#808080" vector-effect="non-scaling-stroke" d="
  M 62.17 21.58
  L 62.36 22.09
  Q 62.41 22.25 62.59 22.28
  L 66.22 22.81
  Q 66.52 22.86 66.59 22.56
  L 66.71 22.03
  Q 66.76 21.79 66.52 21.76
  L 62.42 21.27
  Q 62.04 21.22 62.17 21.58"
/>
<path stroke="#808080" vector-effect="non-scaling-stroke" d="
  M 73.7275 23.2898
  A 0.50 0.50 0.0 0 0 73.2873 22.7364
  L 69.3727 22.2904
  A 0.50 0.50 0.0 0 0 68.8193 22.7306
  L 68.8125 22.7902
  A 0.50 0.50 0.0 0 0 69.2527 23.3436
  L 73.1673 23.7896
  A 0.50 0.50 0.0 0 0 73.7207 23.3494
  L 73.7275 23.2898"
/>
<path stroke="#808080" vector-effect="non-scaling-stroke" d="
  M 75.6789 28.6184
  A 0.37 0.37 0.0 0 0 75.1682 28.5043
  L 71.5545 30.7976
  A 0.37 0.37 0.0 0 0 71.4404 31.3083
  L 71.6011 31.5616
  A 0.37 0.37 0.0 0 0 72.1118 31.6757
  L 75.7255 29.3824
  A 0.37 0.37 0.0 0 0 75.8396 28.8717
  L 75.6789 28.6184"
/>
<path stroke="#808080" vector-effect="non-scaling-stroke" d="
  M 16.05 50.83
  C 16.41 51.59 16.30 53.08 16.30 53.93
  Q 16.30 54.36 16.73 54.38
  L 17.04 54.39
  A 0.40 0.39 -89.3 0 0 17.45 53.98
  Q 17.40 51.97 16.66 50.12
  A 0.45 0.40 -59.9 0 0 15.86 50.38
  Q 15.86 50.43 16.05 50.83"
/>
<path stroke="#808080" vector-effect="non-scaling-stroke" d="
  M 23.09 56.73
  L 23.63 56.32
  A 0.19 0.19 0.0 0 0 23.67 56.05
  L 22.13 54.05
  A 2.35 0.34 52.4 0 0 20.43 52.40
  L 20.13 52.63
  A 2.35 0.34 52.4 0 0 21.29 54.70
  L 22.83 56.70
  A 0.19 0.19 0.0 0 0 23.09 56.73"
/>
<path stroke="#808080" vector-effect="non-scaling-stroke" d="
  M 17.35 56.65
  L 16.55 56.75
  A 0.19 0.19 0.0 0 0 16.39 56.96
  L 16.41 57.13
  A 4.56 0.35 82.8 0 0 17.33 61.61
  L 17.81 61.55
  A 4.56 0.35 82.8 0 0 17.58 56.98
  L 17.56 56.81
  A 0.19 0.19 0.0 0 0 17.35 56.65"
/>
<path stroke="#808080" vector-effect="non-scaling-stroke" d="
  M 25.2135 58.3959
  A 0.49 0.49 0.0 0 0 24.5273 58.2995
  L 24.4794 58.3356
  A 0.49 0.49 0.0 0 0 24.3829 59.0218
  L 26.8865 62.3441
  A 0.49 0.49 0.0 0 0 27.5727 62.4405
  L 27.6206 62.4044
  A 0.49 0.49 0.0 0 0 27.7171 61.7182
  L 25.2135 58.3959"
/>
<path stroke="#808080" vector-effect="non-scaling-stroke" d="
  M 55.38 67.51
  L 56.13 67.67
  A 0.20 0.20 0.0 0 0 56.36 67.52
  L 56.40 67.36
  A 4.64 0.35 -77.9 0 0 57.03 62.75
  L 56.58 62.66
  A 4.64 0.35 -77.9 0 0 55.26 67.12
  L 55.23 67.28
  A 0.20 0.20 0.0 0 0 55.38 67.51"
/>
<path stroke="#808080" vector-effect="non-scaling-stroke" d="
  M 33.5863 70.0362
  A 0.47 0.47 0.0 0 0 32.9266 69.9552
  L 32.8951 69.9798
  A 0.47 0.47 0.0 0 0 32.8140 70.6396
  L 35.4737 74.0438
  A 0.47 0.47 0.0 0 0 36.1334 74.1248
  L 36.1649 74.1002
  A 0.47 0.47 0.0 0 0 36.2460 73.4404
  L 33.5863 70.0362"
/>
<path stroke="#808080" vector-effect="non-scaling-stroke" d="
  M 44.22 85.85
  L 44.80 85.40
  A 0.19 0.19 0.0 0 0 44.84 85.13
  L 44.69 84.94
  A 4.65 0.33 52.1 0 0 41.57 81.47
  L 41.21 81.76
  A 4.65 0.33 52.1 0 0 43.80 85.63
  L 43.95 85.82
  A 0.19 0.19 0.0 0 0 44.22 85.85"
/>
<path stroke="#808080" vector-effect="non-scaling-stroke" d="
  M 53.15 84.25
  L 52.43 84.10
  A 0.20 0.20 0.0 0 0 52.19 84.25
  L 51.44 87.75
  A 0.96 0.45 -77.9 0 0 51.68 88.78
  L 51.91 88.83
  A 0.96 0.45 -77.9 0 0 52.55 87.99
  L 53.30 84.49
  A 0.20 0.20 0.0 0 0 53.15 84.25"
/>
<path stroke="#808080" vector-effect="non-scaling-stroke" d="
  M 48.86 90.80
  L 46.31 87.37
  A 0.44 0.43 -37.0 0 0 45.70 87.29
  L 45.39 87.53
  Q 45.17 87.70 45.34 87.91
  L 48.11 91.24
  Q 48.32 91.49 48.57 91.27
  L 48.83 91.05
  Q 48.96 90.94 48.86 90.80"
/>
</g>
<path fill="#000000" d="
  M 8.57 0.00
  L 91.56 0.00
  Q 98.49 1.30 100.00 8.07
  L 100.00 92.08
  Q 98.48 98.67 91.93 100.00
  L 8.00 100.00
  Q 1.32 98.44 0.00 91.62
  L 0.00 8.39
  Q 1.47 1.30 8.57 0.00
  Z
  M 82.66 23.98
  L 49.67 5.58
  Q 49.25 5.35 48.88 5.67
  L 8.57 41.11
  A 0.40 0.40 0.0 0 0 8.45 41.52
  L 17.80 75.24
  A 2.57 2.54 -83.0 0 0 18.98 76.77
  L 50.27 94.97
  Q 50.93 95.36 51.53 94.88
  Q 72.33 78.27 91.92 60.23
  Q 92.32 59.86 92.19 59.33
  L 83.19 24.67
  Q 83.07 24.21 82.66 23.98
  Z"
/>
<path fill="#ffffff" d="
  M 49.67 5.58
  L 82.66 23.98
  Q 83.07 24.21 83.19 24.67
  L 92.19 59.33
  Q 92.32 59.86 91.92 60.23
  Q 72.33 78.27 51.53 94.88
  Q 50.93 95.36 50.27 94.97
  L 18.98 76.77
  A 2.57 2.54 -83.0 0 1 17.80 75.24
  L 8.45 41.52
  A 0.40 0.40 0.0 0 1 8.57 41.11
  L 48.88 5.67
  Q 49.25 5.35 49.67 5.58
  Z
  M 32.77 23.00
  Q 32.78 22.71 32.58 22.48
  A 0.46 0.45 48.1 0 0 31.93 22.44
  L 10.92 40.95
  A 0.54 0.53 -48.8 0 0 10.97 41.79
  L 15.86 45.19
  A 0.73 0.73 0.0 0 0 16.94 44.89
  Q 17.53 43.62 18.68 42.66
  Q 18.82 42.54 18.95 42.54
  Q 19.24 42.54 19.37 42.88
  A 0.44 0.42 -36.4 0 1 19.30 43.29
  L 17.42 45.68
  Q 17.36 45.74 17.38 45.83
  Q 17.45 46.25 17.90 46.39
  A 0.50 0.49 34.0 0 0 18.32 46.31
  L 19.43 45.43
  Q 19.77 45.16 20.15 45.37
  Q 20.53 45.59 20.55 45.99
  Q 20.57 46.53 20.03 46.48
  Q 19.51 46.42 19.09 46.72
  A 0.43 0.43 0.0 0 0 19.09 47.42
  L 38.80 60.97
  A 0.33 0.32 21.9 0 0 39.31 60.76
  L 45.17 26.04
  A 0.88 0.87 23.0 0 0 44.82 25.19
  L 42.36 23.42
  Q 42.14 23.27 42.22 23.01
  L 42.33 22.67
  Q 42.51 22.12 42.95 22.49
  L 44.92 24.15
  A 0.40 0.40 0.0 0 0 45.58 23.91
  L 48.19 8.53
  A 0.16 0.16 0.0 0 0 47.93 8.38
  L 38.09 17.04
  A 0.91 0.91 0.0 0 0 37.93 18.22
  C 38.68 19.36 39.70 20.04 40.75 20.89
  Q 41.00 21.10 40.78 21.34
  L 40.52 21.64
  Q 40.31 21.87 40.07 21.67
  L 36.97 19.08
  Q 36.15 18.40 35.58 19.30
  L 33.12 23.14
  Q 32.74 23.73 32.77 23.00
  Z
  M 76.34 48.01
  L 79.21 50.11
  A 0.23 0.23 0.0 0 0 79.49 50.11
  L 79.70 49.93
  Q 79.73 49.90 79.71 49.87
  Q 73.89 42.10 68.38 34.17
  A 0.47 0.47 0.0 0 0 67.62 34.15
  Q 66.90 35.06 65.83 35.47
  Q 65.43 35.62 65.38 35.19
  L 65.34 34.89
  Q 65.29 34.50 65.64 34.31
  L 67.09 33.55
  Q 67.71 33.22 67.30 32.66
  L 59.58 21.89
  A 0.97 0.96 68.6 0 0 58.70 21.50
  Q 56.81 21.69 54.97 21.20
  A 0.45 0.45 0.0 0 1 54.75 20.47
  Q 55.28 19.88 56.26 20.33
  Q 57.23 20.77 58.05 20.58
  Q 58.60 20.46 58.27 20.00
  L 50.47 9.03
  Q 49.75 8.02 49.55 9.24
  L 47.99 18.70
  A 0.52 0.51 -82.7 0 0 48.45 19.30
  L 52.10 19.63
  Q 52.52 19.67 52.43 20.08
  L 52.32 20.53
  A 0.32 0.31 9.9 0 1 51.97 20.77
  L 48.25 20.26
  Q 47.73 20.19 47.64 20.72
  L 44.35 40.00
  Q 44.22 40.80 45.00 40.57
  L 48.25 39.63
  Q 48.50 39.56 48.61 39.80
  L 48.79 40.19
  Q 48.91 40.47 48.62 40.55
  L 44.64 41.66
  Q 44.07 41.82 43.97 42.40
  L 40.76 61.26
  A 0.18 0.18 0.0 0 0 40.98 61.47
  L 56.79 58.01
  Q 57.30 57.90 57.28 57.37
  Q 57.25 56.40 57.82 55.62
  A 0.29 0.28 -39.6 0 1 58.31 55.66
  Q 58.61 56.29 58.37 56.91
  Q 58.04 57.76 58.93 57.56
  L 79.71 53.01
  Q 82.98 52.29 79.81 51.23
  Q 77.60 50.49 75.88 48.50
  A 0.34 0.34 0.0 0 1 76.34 48.01
  Z
  M 77.63 27.22
  Q 77.61 27.02 77.78 26.91
  L 78.94 26.23
  Q 81.55 24.67 78.51 24.60
  Q 77.82 24.58 76.62 24.47
  A 0.49 0.48 84.6 0 1 76.20 24.11
  L 76.11 23.74
  Q 75.97 23.20 76.52 23.33
  L 78.02 23.71
  Q 78.30 23.78 78.41 23.51
  L 78.51 23.25
  Q 78.51 23.25 78.34 23.15
  Q 65.67 16.27 53.15 9.12
  Q 51.60 8.24 52.64 9.68
  L 81.37 49.96
  Q 82.00 50.84 81.98 49.75
  L 81.67 26.74
  Q 81.66 25.62 80.73 26.25
  L 78.14 28.02
  Q 77.77 28.28 77.71 27.83
  L 77.63 27.22
  Z
  M 90.21 57.77
  L 84.08 33.90
  Q 83.21 30.49 83.25 34.02
  L 83.50 52.49
  Q 83.51 52.77 83.72 52.94
  L 90.05 57.88
  A 0.10 0.10 0.0 0 0 90.21 57.77
  Z
  M 18.75 50.69
  Q 18.40 50.65 18.19 50.29
  Q 15.64 45.95 11.06 43.73
  Q 10.59 43.50 10.73 44.00
  L 16.76 65.98
  Q 17.28 67.90 17.59 65.91
  Q 17.62 65.76 17.37 64.52
  Q 17.30 64.15 17.67 64.07
  L 18.00 64.00
  A 0.30 0.30 0.0 0 1 18.36 64.27
  L 18.59 67.20
  Q 18.63 67.71 18.31 68.10
  Q 17.32 69.31 18.06 70.49
  C 18.95 71.92 19.11 72.34 19.01 73.87
  A 0.52 0.52 0.0 0 0 19.81 74.34
  L 30.08 67.78
  A 0.76 0.76 0.0 0 0 30.16 66.57
  Q 29.22 65.79 28.62 64.77
  A 0.43 0.43 0.0 0 1 29.08 64.13
  Q 29.61 64.24 29.98 64.80
  Q 30.70 65.91 31.07 66.46
  Q 31.42 66.97 31.94 66.64
  L 37.98 62.81
  Q 38.48 62.50 37.99 62.17
  L 18.91 48.98
  Q 18.01 48.36 18.53 49.32
  L 19.04 50.25
  Q 19.31 50.74 18.75 50.69
  Z
  M 56.97 60.33
  L 56.75 60.09
  Q 56.36 59.68 55.80 59.80
  L 42.22 62.73
  A 0.43 0.43 0.0 0 0 42.04 63.49
  L 53.65 72.87
  A 0.53 0.53 0.0 0 0 54.51 72.44
  Q 54.46 71.18 54.87 69.98
  A 0.40 0.40 0.0 0 1 55.64 70.05
  Q 55.89 71.81 55.11 73.40
  A 0.69 0.68 33.3 0 0 55.29 74.23
  L 64.41 81.68
  A 0.48 0.48 0.0 0 0 65.13 81.56
  L 81.11 54.50
  A 0.14 0.14 0.0 0 0 80.97 54.29
  L 58.44 59.22
  Q 58.01 59.32 57.86 59.72
  L 57.69 60.18
  Q 57.45 60.83 56.97 60.33
  Z
  M 82.53 54.94
  L 68.81 78.09
  Q 67.83 79.74 69.27 78.47
  L 89.72 60.41
  Q 90.41 59.80 89.67 59.25
  L 83.66 54.71
  Q 82.97 54.20 82.53 54.94
  Z
  M 37.55 75.80
  Q 38.10 75.90 38.37 76.41
  C 39.06 77.72 39.67 78.35 41.24 78.59
  Q 46.78 79.42 52.45 80.32
  A 0.65 0.65 0.0 0 0 53.20 79.75
  L 53.44 77.47
  Q 53.52 76.71 54.15 77.14
  L 54.46 77.35
  A 0.54 0.54 0.0 0 1 54.65 78.03
  L 53.85 79.75
  A 0.60 0.60 0.0 0 0 54.30 80.59
  L 60.56 81.64
  Q 62.58 81.98 60.99 80.69
  L 40.10 63.69
  Q 39.76 63.41 39.38 63.65
  L 21.79 74.74
  Q 20.74 75.40 21.97 75.59
  L 37.53 77.99
  A 0.36 0.36 0.0 0 0 37.85 77.39
  Q 37.41 76.91 37.15 76.31
  Q 36.86 75.67 37.55 75.80
  Z
  M 51.52 91.71
  L 51.57 92.11
  A 0.44 0.43 -23.6 0 0 52.27 92.38
  L 62.82 83.99
  A 0.29 0.28 29.8 0 0 62.68 83.49
  L 24.41 77.48
  Q 22.50 77.18 24.17 78.15
  L 49.76 92.99
  Q 50.91 93.65 50.57 92.31
  Q 50.47 91.94 50.91 91.51
  Q 51.42 91.01 51.52 91.71
  Z"
/>
<path fill="#000000" d="
  M 33.12 23.14
  L 35.58 19.30
  Q 36.15 18.40 36.97 19.08
  L 40.07 21.67
  Q 40.31 21.87 40.52 21.64
  L 40.78 21.34
  Q 41.00 21.10 40.75 20.89
  C 39.70 20.04 38.68 19.36 37.93 18.22
  A 0.91 0.91 0.0 0 1 38.09 17.04
  L 47.93 8.38
  A 0.16 0.16 0.0 0 1 48.19 8.53
  L 45.58 23.91
  A 0.40 0.40 0.0 0 1 44.92 24.15
  L 42.95 22.49
  Q 42.51 22.12 42.33 22.67
  L 42.22 23.01
  Q 42.14 23.27 42.36 23.42
  L 44.82 25.19
  A 0.88 0.87 23.0 0 1 45.17 26.04
  L 39.31 60.76
  A 0.33 0.32 21.9 0 1 38.80 60.97
  L 19.09 47.42
  A 0.43 0.43 0.0 0 1 19.09 46.72
  Q 19.51 46.42 20.03 46.48
  Q 20.57 46.53 20.55 45.99
  Q 20.53 45.59 20.15 45.37
  Q 19.77 45.16 19.43 45.43
  L 18.32 46.31
  A 0.50 0.49 34.0 0 1 17.90 46.39
  Q 17.45 46.25 17.38 45.83
  Q 17.36 45.74 17.42 45.68
  L 19.30 43.29
  A 0.44 0.42 -36.4 0 0 19.37 42.88
  Q 19.24 42.54 18.95 42.54
  Q 18.82 42.54 18.68 42.66
  Q 17.53 43.62 16.94 44.89
  A 0.73 0.73 0.0 0 1 15.86 45.19
  L 10.97 41.79
  A 0.54 0.53 -48.8 0 1 10.92 40.95
  L 31.93 22.44
  A 0.46 0.45 48.1 0 1 32.58 22.48
  Q 32.78 22.71 32.77 23.00
  Q 32.74 23.73 33.12 23.14
  Z
  M 40.48 18.37
  L 40.54 18.82
  A 0.24 0.24 0.0 0 0 40.74 19.03
  L 44.67 19.81
  Q 45.13 19.90 45.13 19.44
  L 45.13 19.18
  A 0.62 0.62 0.0 0 0 44.56 18.56
  L 40.65 18.20
  Q 40.46 18.18 40.48 18.37
  Z
  M 28.1933 29.3197
  A 2.71 0.55 126.1 0 0 30.2344 27.4541
  A 2.71 0.55 126.1 0 0 31.3867 24.9403
  A 2.71 0.55 126.1 0 0 29.3456 26.8059
  A 2.71 0.55 126.1 0 0 28.1933 29.3197
  Z
  M 24.1538 35.1301
  A 2.76 0.56 126.1 0 0 26.2325 33.2299
  A 2.76 0.56 126.1 0 0 27.4062 30.6699
  A 2.76 0.56 126.1 0 0 25.3275 32.5701
  A 2.76 0.56 126.1 0 0 24.1538 35.1301
  Z
  M 23.53 36.92
  L 22.98 36.52
  A 0.18 0.18 0.0 0 0 22.73 36.55
  L 20.45 39.64
  A 1.19 0.42 -53.6 0 0 20.09 40.84
  L 20.25 40.96
  A 1.19 0.42 -53.6 0 0 21.29 40.25
  L 23.56 37.17
  A 0.18 0.18 0.0 0 0 23.53 36.92
  Z
  M 41.5965 41.6458
  A 2.50 0.59 -10.7 0 0 39.0305 41.5303
  A 2.50 0.59 -10.7 0 0 36.6835 42.5742
  A 2.50 0.59 -10.7 0 0 39.2495 42.6897
  A 2.50 0.59 -10.7 0 0 41.5965 41.6458
  Z
  M 34.71 43.20
  L 34.54 42.55
  A 0.19 0.19 0.0 0 0 34.31 42.41
  L 30.16 43.49
  A 0.56 0.43 -14.6 0 0 29.73 44.05
  L 29.78 44.24
  A 0.56 0.43 -14.6 0 0 30.43 44.52
  L 34.58 43.44
  A 0.19 0.19 0.0 0 0 34.71 43.20
  Z
  M 27.4699 44.3495
  A 0.37 0.37 0.0 0 0 27.0392 44.0524
  L 23.0459 44.7853
  A 0.37 0.37 0.0 0 0 22.7487 45.2160
  L 22.8101 45.5505
  A 0.37 0.37 0.0 0 0 23.2408 45.8476
  L 27.2341 45.1147
  A 0.37 0.37 0.0 0 0 27.5313 44.6840
  L 27.4699 44.3495
  Z"
/>
<path fill="#000000" d="
  M 75.88 48.50
  Q 77.60 50.49 79.81 51.23
  Q 82.98 52.29 79.71 53.01
  L 58.93 57.56
  Q 58.04 57.76 58.37 56.91
  Q 58.61 56.29 58.31 55.66
  A 0.29 0.28 -39.6 0 0 57.82 55.62
  Q 57.25 56.40 57.28 57.37
  Q 57.30 57.90 56.79 58.01
  L 40.98 61.47
  A 0.18 0.18 0.0 0 1 40.76 61.26
  L 43.97 42.40
  Q 44.07 41.82 44.64 41.66
  L 48.62 40.55
  Q 48.91 40.47 48.79 40.19
  L 48.61 39.80
  Q 48.50 39.56 48.25 39.63
  L 45.00 40.57
  Q 44.22 40.80 44.35 40.00
  L 47.64 20.72
  Q 47.73 20.19 48.25 20.26
  L 51.97 20.77
  A 0.32 0.31 9.9 0 0 52.32 20.53
  L 52.43 20.08
  Q 52.52 19.67 52.10 19.63
  L 48.45 19.30
  A 0.52 0.51 -82.7 0 1 47.99 18.70
  L 49.55 9.24
  Q 49.75 8.02 50.47 9.03
  L 58.27 20.00
  Q 58.60 20.46 58.05 20.58
  Q 57.23 20.77 56.26 20.33
  Q 55.28 19.88 54.75 20.47
  A 0.45 0.45 0.0 0 0 54.97 21.20
  Q 56.81 21.69 58.70 21.50
  A 0.97 0.96 68.6 0 1 59.58 21.89
  L 67.30 32.66
  Q 67.71 33.22 67.09 33.55
  L 65.64 34.31
  Q 65.29 34.50 65.34 34.89
  L 65.38 35.19
  Q 65.43 35.62 65.83 35.47
  Q 66.90 35.06 67.62 34.15
  A 0.47 0.47 0.0 0 1 68.38 34.17
  Q 73.89 42.10 79.71 49.87
  Q 79.73 49.90 79.70 49.93
  L 79.49 50.11
  A 0.23 0.23 0.0 0 1 79.21 50.11
  L 76.34 48.01
  A 0.34 0.34 0.0 0 0 75.88 48.50
  Z
  M 52.2410 30.4272
  A 2.69 0.58 38.3 0 0 50.4895 28.3048
  A 2.69 0.58 38.3 0 0 48.0190 27.0928
  A 2.69 0.58 38.3 0 0 49.7705 29.2152
  A 2.69 0.58 38.3 0 0 52.2410 30.4272
  Z
  M 57.6915 34.5952
  A 0.49 0.49 0.0 0 0 57.6047 33.9077
  L 54.3650 31.3948
  A 0.49 0.49 0.0 0 0 53.6775 31.4816
  L 53.6285 31.5448
  A 0.49 0.49 0.0 0 0 53.7153 32.2323
  L 56.9550 34.7452
  A 0.49 0.49 0.0 0 0 57.6425 34.6584
  L 57.6915 34.5952
  Z
  M 59.49 36.05
  Q 59.89 37.73 60.86 39.16
  A 0.51 0.51 0.0 0 0 61.70 39.17
  L 63.50 36.54
  A 0.33 0.33 0.0 0 0 63.06 36.06
  L 61.78 36.79
  A 0.78 0.77 -37.7 0 1 60.87 36.68
  L 59.93 35.80
  Q 59.28 35.18 59.49 36.05
  Z
  M 59.7551 38.0659
  A 0.90 0.59 -6.0 0 0 58.7983 37.5732
  A 0.90 0.59 -6.0 0 0 57.9649 38.2541
  A 0.90 0.59 -6.0 0 0 58.9217 38.7468
  A 0.90 0.59 -6.0 0 0 59.7551 38.0659
  Z
  M 55.76 39.05
  L 55.59 38.31
  A 0.20 0.20 0.0 0 0 55.35 38.16
  L 55.18 38.20
  A 4.54 0.36 -12.9 0 0 50.83 39.56
  L 50.93 39.99
  A 4.54 0.36 -12.9 0 0 55.44 39.33
  L 55.61 39.29
  A 0.20 0.20 0.0 0 0 55.76 39.05
  Z
  M 68.5280 42.7793
  A 2.72 0.59 36.8 0 0 66.7034 40.6776
  A 2.72 0.59 36.8 0 0 64.1720 39.5207
  A 2.72 0.59 36.8 0 0 65.9966 41.6224
  A 2.72 0.59 36.8 0 0 68.5280 42.7793
  Z
  M 60.93 41.57
  L 60.42 41.64
  A 0.34 0.34 0.0 0 0 60.14 41.89
  L 59.23 45.80
  Q 59.05 46.55 59.82 46.48
  L 60.10 46.45
  A 0.25 0.24 1.4 0 0 60.32 46.25
  L 61.13 41.78
  Q 61.17 41.54 60.93 41.57
  Z
  M 74.5162 47.1850
  A 2.82 0.57 37.2 0 0 72.6146 45.0260
  A 2.82 0.57 37.2 0 0 70.0238 43.7750
  A 2.82 0.57 37.2 0 0 71.9254 45.9340
  A 2.82 0.57 37.2 0 0 74.5162 47.1850
  Z
  M 59.8072 49.1792
  A 0.41 0.41 0.0 0 0 59.4763 48.7030
  L 59.2008 48.6535
  A 0.41 0.41 0.0 0 0 58.7246 48.9844
  L 58.0128 52.9408
  A 0.41 0.41 0.0 0 0 58.3437 53.4170
  L 58.6192 53.4665
  A 0.41 0.41 0.0 0 0 59.0954 53.1356
  L 59.8072 49.1792
  Z"
/>
<path fill="#000000" d="
  M 78.14 28.02
  L 80.73 26.25
  Q 81.66 25.62 81.67 26.74
  L 81.98 49.75
  Q 82.00 50.84 81.37 49.96
  L 52.64 9.68
  Q 51.60 8.24 53.15 9.12
  Q 65.67 16.27 78.34 23.15
  Q 78.51 23.25 78.51 23.25
  L 78.41 23.51
  Q 78.30 23.78 78.02 23.71
  L 76.52 23.33
  Q 75.97 23.20 76.11 23.74
  L 76.20 24.11
  A 0.49 0.48 84.6 0 0 76.62 24.47
  Q 77.82 24.58 78.51 24.60
  Q 81.55 24.67 78.94 26.23
  L 77.78 26.91
  Q 77.61 27.02 77.63 27.22
  L 77.71 27.83
  Q 77.77 28.28 78.14 28.02
  Z
  M 62.17 21.58
  L 62.36 22.09
  Q 62.41 22.25 62.59 22.28
  L 66.22 22.81
  Q 66.52 22.86 66.59 22.56
  L 66.71 22.03
  Q 66.76 21.79 66.52 21.76
  L 62.42 21.27
  Q 62.04 21.22 62.17 21.58
  Z
  M 73.7275 23.2898
  A 0.50 0.50 0.0 0 0 73.2873 22.7364
  L 69.3727 22.2904
  A 0.50 0.50 0.0 0 0 68.8193 22.7306
  L 68.8125 22.7902
  A 0.50 0.50 0.0 0 0 69.2527 23.3436
  L 73.1673 23.7896
  A 0.50 0.50 0.0 0 0 73.7207 23.3494
  L 73.7275 23.2898
  Z
  M 75.6789 28.6184
  A 0.37 0.37 0.0 0 0 75.1682 28.5043
  L 71.5545 30.7976
  A 0.37 0.37 0.0 0 0 71.4404 31.3083
  L 71.6011 31.5616
  A 0.37 0.37 0.0 0 0 72.1118 31.6757
  L 75.7255 29.3824
  A 0.37 0.37 0.0 0 0 75.8396 28.8717
  L 75.6789 28.6184
  Z"
/>
<path fill="#ffffff" d="
  M 40.65 18.20
  L 44.56 18.56
  A 0.62 0.62 0.0 0 1 45.13 19.18
  L 45.13 19.44
  Q 45.13 19.90 44.67 19.81
  L 40.74 19.03
  A 0.24 0.24 0.0 0 1 40.54 18.82
  L 40.48 18.37
  Q 40.46 18.18 40.65 18.20
  Z"
/>
<path fill="#ffffff" d="
  M 62.42 21.27
  L 66.52 21.76
  Q 66.76 21.79 66.71 22.03
  L 66.59 22.56
  Q 66.52 22.86 66.22 22.81
  L 62.59 22.28
  Q 62.41 22.25 62.36 22.09
  L 62.17 21.58
  Q 62.04 21.22 62.42 21.27
  Z"
/>
<rect fill="#ffffff" x="-2.47" y="-0.53" transform="translate(71.27,23.04) rotate(6.5)" width="4.94" height="1.06" rx="0.50"/>
<ellipse fill="#ffffff" cx="0.00" cy="0.00" transform="translate(29.79,27.13) rotate(126.1)" rx="2.71" ry="0.55"/>
<ellipse fill="#ffffff" cx="0.00" cy="0.00" transform="translate(50.13,28.76) rotate(38.3)" rx="2.69" ry="0.58"/>
<rect fill="#ffffff" x="-2.51" y="-0.52" transform="translate(73.64,30.09) rotate(-32.4)" width="5.02" height="1.04" rx="0.37"/>
<ellipse fill="#ffffff" cx="0.00" cy="0.00" transform="translate(25.78,32.90) rotate(126.1)" rx="2.76" ry="0.56"/>
<rect fill="#ffffff" x="-2.54" y="-0.53" transform="translate(55.66,33.07) rotate(37.8)" width="5.08" height="1.06" rx="0.49"/>
<path fill="#000000" d="
  M 90.21 57.77
  A 0.10 0.10 0.0 0 1 90.05 57.88
  L 83.72 52.94
  Q 83.51 52.77 83.50 52.49
  L 83.25 34.02
  Q 83.21 30.49 84.08 33.90
  L 90.21 57.77
  Z"
/>
<path fill="#ffffff" d="
  M 59.49 36.05
  Q 59.28 35.18 59.93 35.80
  L 60.87 36.68
  A 0.78 0.77 -37.7 0 0 61.78 36.79
  L 63.06 36.06
  A 0.33 0.33 0.0 0 1 63.50 36.54
  L 61.70 39.17
  A 0.51 0.51 0.0 0 1 60.86 39.16
  Q 59.89 37.73 59.49 36.05
  Z"
/>
<path fill="#ffffff" d="
  M 23.53 36.92
  A 0.18 0.18 0.0 0 1 23.56 37.17
  L 21.29 40.25
  A 1.19 0.42 -53.6 0 1 20.25 40.96
  L 20.09 40.84
  A 1.19 0.42 -53.6 0 1 20.45 39.64
  L 22.73 36.55
  A 0.18 0.18 0.0 0 1 22.98 36.52
  L 23.53 36.92
  Z"
/>
<ellipse fill="#ffffff" cx="0.00" cy="0.00" transform="translate(58.86,38.16) rotate(-6.0)" rx="0.90" ry="0.59"/>
<path fill="#ffffff" d="
  M 55.76 39.05
  A 0.20 0.20 0.0 0 1 55.61 39.29
  L 55.44 39.33
  A 4.54 0.36 -12.9 0 1 50.93 39.99
  L 50.83 39.56
  A 4.54 0.36 -12.9 0 1 55.18 38.20
  L 55.35 38.16
  A 0.20 0.20 0.0 0 1 55.59 38.31
  L 55.76 39.05
  Z"
/>
<ellipse fill="#ffffff" cx="0.00" cy="0.00" transform="translate(66.35,41.15) rotate(36.8)" rx="2.72" ry="0.59"/>
<ellipse fill="#ffffff" cx="0.00" cy="0.00" transform="translate(39.14,42.11) rotate(-10.7)" rx="2.50" ry="0.59"/>
<path fill="#ffffff" d="
  M 61.13 41.78
  L 60.32 46.25
  A 0.25 0.24 1.4 0 1 60.10 46.45
  L 59.82 46.48
  Q 59.05 46.55 59.23 45.80
  L 60.14 41.89
  A 0.34 0.34 0.0 0 1 60.42 41.64
  L 60.93 41.57
  Q 61.17 41.54 61.13 41.78
  Z"
/>
<path fill="#ffffff" d="
  M 34.71 43.20
  A 0.19 0.19 0.0 0 1 34.58 43.44
  L 30.43 44.52
  A 0.56 0.43 -14.6 0 1 29.78 44.24
  L 29.73 44.05
  A 0.56 0.43 -14.6 0 1 30.16 43.49
  L 34.31 42.41
  A 0.19 0.19 0.0 0 1 34.54 42.55
  L 34.71 43.20
  Z"
/>
<path fill="#000000" d="
  M 19.04 50.25
  L 18.53 49.32
  Q 18.01 48.36 18.91 48.98
  L 37.99 62.17
  Q 38.48 62.50 37.98 62.81
  L 31.94 66.64
  Q 31.42 66.97 31.07 66.46
  Q 30.70 65.91 29.98 64.80
  Q 29.61 64.24 29.08 64.13
  A 0.43 0.43 0.0 0 0 28.62 64.77
  Q 29.22 65.79 30.16 66.57
  A 0.76 0.76 0.0 0 1 30.08 67.78
  L 19.81 74.34
  A 0.52 0.52 0.0 0 1 19.01 73.87
  C 19.11 72.34 18.95 71.92 18.06 70.49
  Q 17.32 69.31 18.31 68.10
  Q 18.63 67.71 18.59 67.20
  L 18.36 64.27
  A 0.30 0.30 0.0 0 0 18.00 64.00
  L 17.67 64.07
  Q 17.30 64.15 17.37 64.52
  Q 17.62 65.76 17.59 65.91
  Q 17.28 67.90 16.76 65.98
  L 10.73 44.00
  Q 10.59 43.50 11.06 43.73
  Q 15.64 45.95 18.19 50.29
  Q 18.40 50.65 18.75 50.69
  Q 19.31 50.74 19.04 50.25
  Z
  M 16.05 50.83
  C 16.41 51.59 16.30 53.08 16.30 53.93
  Q 16.30 54.36 16.73 54.38
  L 17.04 54.39
  A 0.40 0.39 -89.3 0 0 17.45 53.98
  Q 17.40 51.97 16.66 50.12
  A 0.45 0.40 -59.9 0 0 15.86 50.38
  Q 15.86 50.43 16.05 50.83
  Z
  M 23.09 56.73
  L 23.63 56.32
  A 0.19 0.19 0.0 0 0 23.67 56.05
  L 22.13 54.05
  A 2.35 0.34 52.4 0 0 20.43 52.40
  L 20.13 52.63
  A 2.35 0.34 52.4 0 0 21.29 54.70
  L 22.83 56.70
  A 0.19 0.19 0.0 0 0 23.09 56.73
  Z
  M 17.35 56.65
  L 16.55 56.75
  A 0.19 0.19 0.0 0 0 16.39 56.96
  L 16.41 57.13
  A 4.56 0.35 82.8 0 0 17.33 61.61
  L 17.81 61.55
  A 4.56 0.35 82.8 0 0 17.58 56.98
  L 17.56 56.81
  A 0.19 0.19 0.0 0 0 17.35 56.65
  Z
  M 25.2135 58.3959
  A 0.49 0.49 0.0 0 0 24.5273 58.2995
  L 24.4794 58.3356
  A 0.49 0.49 0.0 0 0 24.3829 59.0218
  L 26.8865 62.3441
  A 0.49 0.49 0.0 0 0 27.5727 62.4405
  L 27.6206 62.4044
  A 0.49 0.49 0.0 0 0 27.7171 61.7182
  L 25.2135 58.3959
  Z"
/>
<ellipse fill="#ffffff" cx="0.00" cy="0.00" transform="translate(72.27,45.48) rotate(37.2)" rx="2.82" ry="0.57"/>
<rect fill="#ffffff" x="-2.40" y="-0.54" transform="translate(25.14,44.95) rotate(-10.4)" width="4.80" height="1.08" rx="0.37"/>
<rect fill="#ffffff" x="-0.55" y="-2.42" transform="translate(58.91,51.06) rotate(10.2)" width="1.10" height="4.84" rx="0.41"/>
<path fill="#ffffff" d="
  M 16.05 50.83
  Q 15.86 50.43 15.86 50.38
  A 0.45 0.40 -59.9 0 1 16.66 50.12
  Q 17.40 51.97 17.45 53.98
  A 0.40 0.39 -89.3 0 1 17.04 54.39
  L 16.73 54.38
  Q 16.30 54.36 16.30 53.93
  C 16.30 53.08 16.41 51.59 16.05 50.83
  Z"
/>
<path fill="#ffffff" d="
  M 23.09 56.73
  A 0.19 0.19 0.0 0 1 22.83 56.70
  L 21.29 54.70
  A 2.35 0.34 52.4 0 1 20.13 52.63
  L 20.43 52.40
  A 2.35 0.34 52.4 0 1 22.13 54.05
  L 23.67 56.05
  A 0.19 0.19 0.0 0 1 23.63 56.32
  L 23.09 56.73
  Z"
/>
<path fill="#000000" d="
  M 57.69 60.18
  L 57.86 59.72
  Q 58.01 59.32 58.44 59.22
  L 80.97 54.29
  A 0.14 0.14 0.0 0 1 81.11 54.50
  L 65.13 81.56
  A 0.48 0.48 0.0 0 1 64.41 81.68
  L 55.29 74.23
  A 0.69 0.68 33.3 0 1 55.11 73.40
  Q 55.89 71.81 55.64 70.05
  A 0.40 0.40 0.0 0 0 54.87 69.98
  Q 54.46 71.18 54.51 72.44
  A 0.53 0.53 0.0 0 1 53.65 72.87
  L 42.04 63.49
  A 0.43 0.43 0.0 0 1 42.22 62.73
  L 55.80 59.80
  Q 56.36 59.68 56.75 60.09
  L 56.97 60.33
  Q 57.45 60.83 57.69 60.18
  Z
  M 55.38 67.51
  L 56.13 67.67
  A 0.20 0.20 0.0 0 0 56.36 67.52
  L 56.40 67.36
  A 4.64 0.35 -77.9 0 0 57.03 62.75
  L 56.58 62.66
  A 4.64 0.35 -77.9 0 0 55.26 67.12
  L 55.23 67.28
  A 0.20 0.20 0.0 0 0 55.38 67.51
  Z"
/>
<path fill="#000000" d="
  M 68.81 78.09
  L 82.53 54.94
  Q 82.97 54.20 83.66 54.71
  L 89.67 59.25
  Q 90.41 59.80 89.72 60.41
  L 69.27 78.47
  Q 67.83 79.74 68.81 78.09
  Z"
/>
<path fill="#ffffff" d="
  M 17.35 56.65
  A 0.19 0.19 0.0 0 1 17.56 56.81
  L 17.58 56.98
  A 4.56 0.35 82.8 0 1 17.81 61.55
  L 17.33 61.61
  A 4.56 0.35 82.8 0 1 16.41 57.13
  L 16.39 56.96
  A 0.19 0.19 0.0 0 1 16.55 56.75
  L 17.35 56.65
  Z"
/>
<rect fill="#ffffff" x="-0.52" y="-2.57" transform="translate(26.05,60.37) rotate(-37.0)" width="1.04" height="5.14" rx="0.49"/>
<path fill="#ffffff" d="
  M 55.38 67.51
  A 0.20 0.20 0.0 0 1 55.23 67.28
  L 55.26 67.12
  A 4.64 0.35 -77.9 0 1 56.58 62.66
  L 57.03 62.75
  A 4.64 0.35 -77.9 0 1 56.40 67.36
  L 56.36 67.52
  A 0.20 0.20 0.0 0 1 56.13 67.67
  L 55.38 67.51
  Z"
/>
<path fill="#000000" d="
  M 37.15 76.31
  Q 37.41 76.91 37.85 77.39
  A 0.36 0.36 0.0 0 1 37.53 77.99
  L 21.97 75.59
  Q 20.74 75.40 21.79 74.74
  L 39.38 63.65
  Q 39.76 63.41 40.10 63.69
  L 60.99 80.69
  Q 62.58 81.98 60.56 81.64
  L 54.30 80.59
  A 0.60 0.60 0.0 0 1 53.85 79.75
  L 54.65 78.03
  A 0.54 0.54 0.0 0 0 54.46 77.35
  L 54.15 77.14
  Q 53.52 76.71 53.44 77.47
  L 53.20 79.75
  A 0.65 0.65 0.0 0 1 52.45 80.32
  Q 46.78 79.42 41.24 78.59
  C 39.67 78.35 39.06 77.72 38.37 76.41
  Q 38.10 75.90 37.55 75.80
  Q 36.86 75.67 37.15 76.31
  Z
  M 33.5863 70.0362
  A 0.47 0.47 0.0 0 0 32.9266 69.9552
  L 32.8951 69.9798
  A 0.47 0.47 0.0 0 0 32.8140 70.6396
  L 35.4737 74.0438
  A 0.47 0.47 0.0 0 0 36.1334 74.1248
  L 36.1649 74.1002
  A 0.47 0.47 0.0 0 0 36.2460 73.4404
  L 33.5863 70.0362
  Z"
/>
<rect fill="#ffffff" x="-0.49" y="-2.63" transform="translate(34.53,72.04) rotate(-38.0)" width="0.98" height="5.26" rx="0.47"/>
<path fill="#000000" d="
  M 50.91 91.51
  Q 50.47 91.94 50.57 92.31
  Q 50.91 93.65 49.76 92.99
  L 24.17 78.15
  Q 22.50 77.18 24.41 77.48
  L 62.68 83.49
  A 0.29 0.28 29.8 0 1 62.82 83.99
  L 52.27 92.38
  A 0.44 0.43 -23.6 0 1 51.57 92.11
  L 51.52 91.71
  Q 51.42 91.01 50.91 91.51
  Z
  M 44.22 85.85
  L 44.80 85.40
  A 0.19 0.19 0.0 0 0 44.84 85.13
  L 44.69 84.94
  A 4.65 0.33 52.1 0 0 41.57 81.47
  L 41.21 81.76
  A 4.65 0.33 52.1 0 0 43.80 85.63
  L 43.95 85.82
  A 0.19 0.19 0.0 0 0 44.22 85.85
  Z
  M 53.15 84.25
  L 52.43 84.10
  A 0.20 0.20 0.0 0 0 52.19 84.25
  L 51.44 87.75
  A 0.96 0.45 -77.9 0 0 51.68 88.78
  L 51.91 88.83
  A 0.96 0.45 -77.9 0 0 52.55 87.99
  L 53.30 84.49
  A 0.20 0.20 0.0 0 0 53.15 84.25
  Z
  M 48.86 90.80
  L 46.31 87.37
  A 0.44 0.43 -37.0 0 0 45.70 87.29
  L 45.39 87.53
  Q 45.17 87.70 45.34 87.91
  L 48.11 91.24
  Q 48.32 91.49 48.57 91.27
  L 48.83 91.05
  Q 48.96 90.94 48.86 90.80
  Z"
/>
<path fill="#ffffff" d="
  M 44.22 85.85
  A 0.19 0.19 0.0 0 1 43.95 85.82
  L 43.80 85.63
  A 4.65 0.33 52.1 0 1 41.21 81.76
  L 41.57 81.47
  A 4.65 0.33 52.1 0 1 44.69 84.94
  L 44.84 85.13
  A 0.19 0.19 0.0 0 1 44.80 85.40
  L 44.22 85.85
  Z"
/>
<path fill="#ffffff" d="
  M 53.15 84.25
  A 0.20 0.20 0.0 0 1 53.30 84.49
  L 52.55 87.99
  A 0.96 0.45 -77.9 0 1 51.91 88.83
  L 51.68 88.78
  A 0.96 0.45 -77.9 0 1 51.44 87.75
  L 52.19 84.25
  A 0.20 0.20 0.0 0 1 52.43 84.10
  L 53.15 84.25
  Z"
/>
<path fill="#ffffff" d="
  M 48.86 90.80
  Q 48.96 90.94 48.83 91.05
  L 48.57 91.27
  Q 48.32 91.49 48.11 91.24
  L 45.34 87.91
  Q 45.17 87.70 45.39 87.53
  L 45.70 87.29
  A 0.44 0.43 -37.0 0 1 46.31 87.37
  L 48.86 90.80
  Z"
/>
</svg>
