<?xml version="1.0" encoding="UTF-8" standalone="no"?>
<!DOCTYPE svg PUBLIC "-//W3C//DTD SVG 1.1//EN" "http://www.w3.org/Graphics/SVG/1.1/DTD/svg11.dtd">
<svg xmlns="http://www.w3.org/2000/svg" version="1.1" viewBox="0.00 0.00 400.00 400.00" width="400.00" height="400.00">
<g stroke-width="2.00" fill="none" stroke-linecap="butt">
<path stroke="#79435d" vector-effect="non-scaling-stroke" d="
  M 254.70 207.70
  L 246.96 200.06"
/>
<path stroke="#563a44" vector-effect="non-scaling-stroke" d="
  M 246.96 200.06
  Q 257.41 194.01 267.80 187.93
  Q 272.27 185.30 276.18 181.84
  Q 332.90 131.62 389.90 81.24
  Q 390.74 80.50 390.85 79.39
  L 393.83 50.48"
/>
<path stroke="#7e3055" vector-effect="non-scaling-stroke" d="
  M 246.96 200.06
  L 234.30 187.69
  A 0.30 0.30 0.0 0 0 233.80 187.85
  C 233.18 190.80 233.11 193.37 230.95 195.73
  Q 227.23 199.81 223.09 204.07"
/>
<path stroke="#5b414c" vector-effect="non-scaling-stroke" d="
  M 223.09 204.07
  L 215.75 185.73"
/>
<path stroke="#7e3055" vector-effect="non-scaling-stroke" d="
  M 215.75 185.73
  L 227.75 167.19
  A 1.47 1.44 -32.7 0 0 227.97 166.24
  L 225.59 145.14"
/>
<path stroke="#7e3055" vector-effect="non-scaling-stroke" d="
  M 232.72 142.11
  Q 233.17 142.65 233.21 143.03
  Q 233.86 149.30 234.76 155.74
  Q 234.85 156.33 235.29 155.94
  Q 244.91 147.42 254.50 138.84
  Q 256.81 136.77 259.67 135.56
  Q 305.21 116.30 351.59 96.66
  Q 352.26 96.37 352.16 95.66
  L 351.42 90.12"
/>
<path stroke="#7e3055" vector-effect="non-scaling-stroke" d="
  M 206.15 308.86
  L 222.59 236.62
  Q 222.72 236.04 222.17 236.27
  L 206.55 242.69"
/>
<path stroke="#79435d" vector-effect="non-scaling-stroke" d="
  M 232.28 133.85
  L 231.28 125.38
  Q 231.22 124.85 231.43 124.36
  L 236.16 113.79
  A 2.21 2.19 -88.0 0 1 237.42 112.61
  L 310.06 86.03
  Q 310.48 85.87 310.51 85.43
  L 310.78 80.78
  A 1.35 1.33 -17.5 0 1 311.31 79.78
  L 329.53 65.83"
/>
<path stroke="#7e4b64" vector-effect="non-scaling-stroke" d="
  M 215.75 185.73
  L 207.42 198.91"
/>
<path stroke="#67599a" vector-effect="non-scaling-stroke" d="
  M 207.42 198.91
  Q 206.68 199.75 206.38 200.50"
/>
<path stroke="#aa85ad" vector-effect="non-scaling-stroke" d="
  M 206.38 200.50
  L 199.20 207.93"
/>
<path stroke="#67599a" vector-effect="non-scaling-stroke" d="
  M 199.20 207.93
  L 198.20 208.93"
/>
<path stroke="#7e4b64" vector-effect="non-scaling-stroke" d="
  M 198.20 208.93
  Q 190.90 216.10 183.75 223.49
  C 181.59 225.73 179.68 225.92 176.79 226.63"
/>
<path stroke="#79435d" vector-effect="non-scaling-stroke" d="
  M 176.79 226.63
  L 169.21 228.72
  Q 168.38 228.95 168.07 228.15
  Q 166.50 224.07 164.95 219.90
  C 162.79 214.12 161.63 208.06 160.24 202.02
  Q 159.43 198.50 159.63 194.89
  Q 160.18 184.84 160.77 174.72"
/>
<path stroke="#7e3055" vector-effect="non-scaling-stroke" d="
  M 160.77 174.72
  L 164.53 174.42
  Q 165.04 174.38 165.22 173.90
  Q 173.25 152.41 181.26 130.92
  Q 182.60 127.33 182.47 124.38
  C 181.39 100.28 158.77 100.36 142.06 107.12
  C 123.09 114.81 116.13 131.72 119.95 151.66
  Q 120.45 154.24 122.21 156.71
  Q 130.19 167.92 138.16 179.11
  Q 138.64 179.78 139.16 180.01
  Q 140.08 180.42 140.62 179.84"
/>
<path stroke="#79435d" vector-effect="non-scaling-stroke" d="
  M 140.62 179.84
  C 140.57 181.14 140.28 182.25 140.53 183.55
  Q 143.70 200.42 146.84 217.30
  C 147.85 222.75 150.13 227.26 152.30 232.20"
/>
<path stroke="#7e4b64" vector-effect="non-scaling-stroke" d="
  M 152.30 232.20
  Q 148.55 233.91 146.57 238.06
  C 143.22 245.06 147.79 251.36 155.32 252.13"
/>
<path stroke="#7e3055" vector-effect="non-scaling-stroke" d="
  M 155.32 252.13
  L 156.25 256.56
  Q 156.41 257.29 155.68 257.10
  L 152.39 256.27"
/>
<path stroke="#7e3055" vector-effect="non-scaling-stroke" d="
  M 130.48 234.49
  L 128.57 228.85
  Q 128.41 228.36 127.95 228.12
  C 124.27 226.17 117.77 223.63 115.38 220.25
  Q 111.50 214.73 107.62 209.21
  C 102.20 201.49 98.91 191.78 95.30 183.12"
/>
<path stroke="#79435d" vector-effect="non-scaling-stroke" d="
  M 93.21 169.89
  Q 91.96 166.47 92.48 164.99
  Q 98.09 149.02 103.63 132.98
  Q 104.42 130.71 106.07 128.94
  Q 111.16 123.53 116.01 118.27"
/>
<path stroke="#7e4b64" vector-effect="non-scaling-stroke" d="
  M 223.09 204.07
  L 203.53 224.92
  A 1.90 1.86 -25.1 0 0 203.01 226.31
  L 203.72 243.04
  Q 203.75 243.77 204.43 243.51
  L 206.55 242.69"
/>
<path stroke="#5b414c" vector-effect="non-scaling-stroke" d="
  M 206.55 242.69
  Q 207.89 244.84 205.25 246.93
  Q 204.87 247.23 205.09 247.66
  Q 210.12 257.45 199.21 261.98"
/>
<path stroke="#7e4b64" vector-effect="non-scaling-stroke" d="
  M 199.21 261.98
  Q 194.59 261.35 192.98 263.07"
/>
<path stroke="#446b91" vector-effect="non-scaling-stroke" d="
  M 198.20 208.93
  C 200.73 210.13 201.77 212.11 205.22 211.00
  Q 210.12 209.42 210.14 204.25
  C 210.16 201.72 208.38 200.71 207.42 198.91"
/>
<path stroke="#7e3055" vector-effect="non-scaling-stroke" d="
  M 199.14 318.31
  C 197.79 312.99 196.55 308.03 196.31 302.48
  Q 195.86 291.78 195.58 281.07
  C 195.42 274.69 197.72 268.17 199.21 261.98"
/>
<path stroke="#79435d" vector-effect="non-scaling-stroke" d="
  M 224.88 138.43
  C 224.16 130.84 223.97 122.40 221.28 115.18
  Q 217.71 105.61 214.24 96.26
  A 2.07 2.07 0.0 0 0 213.21 95.13
  L 202.14 89.71"
/>
<path stroke="#70a5da" vector-effect="non-scaling-stroke" d="
  M 199.20 207.93
  Q 203.43 211.10 206.54 208.89
  Q 208.56 207.45 208.79 205.02
  Q 209.05 202.25 206.38 200.50"
/>
<path stroke="#5b414c" vector-effect="non-scaling-stroke" d="
  M 162.01 255.61
  Q 158.97 260.41 160.38 264.37
  Q 162.09 269.21 167.86 269.71"
/>
<path stroke="#7e3055" vector-effect="non-scaling-stroke" d="
  M 167.86 269.71
  C 171.86 276.92 175.90 283.67 178.90 291.50
  Q 184.34 305.71 190.66 320.19"
/>
<path stroke="#446b91" vector-effect="non-scaling-stroke" d="
  M 153.79 236.74
  C 145.76 239.40 148.65 250.27 157.22 247.54
  Q 157.71 247.38 157.63 246.74"
/>
<path stroke="#5b414c" vector-effect="non-scaling-stroke" d="
  M 159.08 250.95
  L 155.32 252.13"
/>
<path stroke="#565554" vector-effect="non-scaling-stroke" d="
  M 176.79 226.63
  Q 177.55 226.42 177.98 227.19
  Q 178.28 227.74 177.76 228.09
  Q 176.50 228.92 177.52 230.04
  Q 177.87 230.43 177.87 230.96
  L 177.87 233.01
  Q 177.87 233.50 178.17 233.89
  Q 179.11 235.14 178.84 236.73
  A 0.83 0.82 -68.8 0 0 179.19 237.54
  Q 180.89 238.70 181.05 240.75
  Q 181.08 241.23 181.50 241.46
  Q 183.58 242.62 184.38 244.84
  C 184.72 245.79 184.38 246.51 185.02 247.49
  A 1.33 1.31 -58.7 0 1 185.24 248.42
  C 184.52 253.84 185.18 258.93 189.93 262.21
  Q 190.32 262.47 190.78 262.52
  Q 192.11 262.63 192.98 263.07"
/>
<path stroke="#79435d" vector-effect="non-scaling-stroke" d="
  M 192.98 263.07
  L 187.12 268.91
  Q 186.76 269.27 186.25 269.28
  C 184.27 269.33 179.88 269.67 178.39 268.14
  Q 176.59 266.29 174.54 265.38"
/>
<path stroke="#565554" vector-effect="non-scaling-stroke" d="
  M 174.54 265.38
  L 172.37 263.70"
/>
<path stroke="#3f638a" vector-effect="non-scaling-stroke" d="
  M 172.37 263.70
  Q 171.68 262.75 170.76 262.28"
/>
<path stroke="#828f9c" vector-effect="non-scaling-stroke" d="
  M 170.76 262.28
  L 166.53 259.01"
/>
<path stroke="#3f638a" vector-effect="non-scaling-stroke" d="
  M 166.53 259.01
  Q 166.06 258.49 165.16 258.09"
/>
<path stroke="#565554" vector-effect="non-scaling-stroke" d="
  M 165.16 258.09
  L 162.01 255.61"
/>
<path stroke="#563a44" vector-effect="non-scaling-stroke" d="
  M 162.01 255.61
  Q 159.79 254.32 159.08 250.95"
/>
<path stroke="#565554" vector-effect="non-scaling-stroke" d="
  M 159.08 250.95
  L 157.63 246.74"
/>
<path stroke="#3f638a" vector-effect="non-scaling-stroke" d="
  M 157.63 246.74
  Q 157.47 246.26 157.34 246.15"
/>
<path stroke="#828f9c" vector-effect="non-scaling-stroke" d="
  M 157.34 246.15
  L 154.38 237.91"
/>
<path stroke="#3f638a" vector-effect="non-scaling-stroke" d="
  M 154.38 237.91
  Q 154.31 237.11 153.79 236.74"
/>
<path stroke="#565554" vector-effect="non-scaling-stroke" d="
  M 153.79 236.74
  L 152.30 232.20"
/>
<path stroke="#563a44" vector-effect="non-scaling-stroke" d="
  M 160.77 174.72
  L 160.83 172.63
  A 0.44 0.44 0.0 0 0 160.25 172.20
  Q 151.03 175.21 141.80 178.07
  Q 140.74 178.39 140.62 179.84"
/>
<path stroke="#79435d" vector-effect="non-scaling-stroke" d="
  M 85.46 171.54
  C 85.01 168.46 83.99 165.66 85.14 162.59
  Q 86.21 159.71 87.25 156.58
  Q 87.47 155.91 86.78 156.07
  L 42.79 166.65
  A 0.42 0.42 0.0 0 1 42.33 166.02
  L 47.06 158.26
  A 0.56 0.56 0.0 0 0 46.84 157.47
  L 38.55 153.04"
/>
<path stroke="#563a44" vector-effect="non-scaling-stroke" d="
  M 10.73 161.12
  L 9.13 191.82
  A 0.88 0.88 0.0 0 0 9.66 192.67
  Q 55.71 212.08 101.46 231.39
  C 110.73 235.31 120.45 238.45 130.07 241.89"
/>
<path stroke="#7e3055" vector-effect="non-scaling-stroke" d="
  M 87.70 183.48
  Q 87.50 184.41 87.74 185.01
  Q 90.46 191.66 93.24 197.91
  Q 93.61 198.74 92.80 198.35
  L 70.25 187.72
  A 2.13 2.08 -33.6 0 0 69.19 187.52
  L 21.80 190.50
  A 0.94 0.92 -17.5 0 1 20.96 190.07
  L 16.64 183.11
  A 1.19 1.18 37.7 0 1 16.51 182.11
  L 18.44 176.12"
/>
<path stroke="#446b91" vector-effect="non-scaling-stroke" d="
  M 165.16 258.09
  C 159.64 265.31 169.00 270.19 172.37 263.70"
/>
<path stroke="#7e4b64" vector-effect="non-scaling-stroke" d="
  M 174.54 265.38
  Q 172.65 269.45 167.86 269.71"
/>
<path stroke="#70a5da" vector-effect="non-scaling-stroke" d="
  M 154.38 237.91
  C 149.98 238.69 149.12 244.66 153.35 246.60
  Q 155.41 247.54 157.34 246.15"
/>
<path stroke="#70a5da" vector-effect="non-scaling-stroke" d="
  M 166.53 259.01
  Q 164.12 260.54 165.07 262.83
  C 166.29 265.76 170.91 265.23 170.76 262.28"
/>
<path stroke="#446b91" vector-effect="non-scaling-stroke" d="
  M 198.72 232.22
  A 5.66 5.66 0.0 0 0 193.06 226.56
  A 5.66 5.66 0.0 0 0 187.40 232.22
  A 5.66 5.66 0.0 0 0 193.06 237.88
  A 5.66 5.66 0.0 0 0 198.72 232.22"
/>
<path stroke="#446b91" vector-effect="non-scaling-stroke" d="
  M 201.51 254.49
  A 4.68 4.68 0.0 0 0 196.83 249.81
  A 4.68 4.68 0.0 0 0 192.15 254.49
  A 4.68 4.68 0.0 0 0 196.83 259.17
  A 4.68 4.68 0.0 0 0 201.51 254.49"
/>
<path stroke="#70a5da" vector-effect="non-scaling-stroke" d="
  M 190.8953 236.1241
  A 4.47 4.31 117.8 0 0 196.7925 234.1801
  A 4.47 4.31 117.8 0 0 195.0647 228.2159
  A 4.47 4.31 117.8 0 0 189.1675 230.1599
  A 4.47 4.31 117.8 0 0 190.8953 236.1241"
/>
<path stroke="#70a5da" vector-effect="non-scaling-stroke" d="
  M 194.28 256.62
  Q 194.53 257.30 195.24 257.56
  C 200.49 259.48 202.10 252.22 197.57 251.23
  C 194.35 250.52 192.63 253.30 193.82 256.27
  Q 193.86 256.36 194.01 256.38
  Q 194.08 256.39 194.14 256.42
  Q 194.23 256.47 194.28 256.62"
/>
</g>
<path fill="#2d79c7" d="
  M 112.44 75.27
  A 0.59 0.59 0.0 0 0 111.58 75.08
  Q 76.09 100.62 39.76 124.96
  Q 39.68 125.02 39.60 124.91
  L 39.60 124.91
  Q 39.51 124.80 39.62 124.71
  C 64.02 104.32 88.81 84.42 113.90 64.94
  A 0.35 0.35 0.0 0 1 114.41 65.04
  L 122.98 79.27
  A 0.61 0.61 0.0 0 0 123.80 79.49
  Q 136.10 72.54 148.35 65.78
  Q 150.72 64.47 153.41 64.14
  Q 175.20 61.51 197.05 58.96
  Q 197.92 58.86 198.69 59.25
  L 202.55 61.19
  A 0.79 0.78 -57.0 0 0 203.51 60.98
  L 221.46 38.22
  Q 221.82 37.76 222.41 37.77
  C 255.70 38.33 289.10 40.26 322.22 42.24
  Q 323.01 42.29 323.67 41.84
  Q 334.48 34.47 345.38 27.14
  Q 345.48 27.08 345.56 27.09
  Q 345.75 27.13 345.54 27.31
  L 324.36 44.84
  A 1.25 1.22 -64.8 0 1 323.61 45.12
  Q 275.06 46.16 226.51 45.61
  A 1.42 1.41 18.7 0 0 225.36 46.17
  Q 217.31 56.75 209.18 67.32
  C 207.52 69.48 205.73 69.86 203.27 70.51
  A 1.31 1.30 -40.0 0 1 202.36 70.43
  L 196.78 67.70
  A 1.37 1.34 53.4 0 0 196.03 67.58
  Q 175.98 69.94 155.92 72.13
  Q 153.23 72.43 150.84 73.70
  Q 135.90 81.67 120.91 89.49
  Q 120.44 89.74 120.18 89.28
  L 112.44 75.27
  Z"
/>
<path fill="#514d4c" d="
  M 254.70 207.70
  L 246.96 200.06
  Q 257.41 194.01 267.80 187.93
  Q 272.27 185.30 276.18 181.84
  Q 332.90 131.62 389.90 81.24
  Q 390.74 80.50 390.85 79.39
  L 393.83 50.48
  L 399.32 41.65
  Q 399.71 41.02 399.70 41.76
  L 399.48 84.97
  A 1.21 1.21 0.0 0 1 399.08 85.87
  Q 339.31 139.58 279.47 193.37
  Q 276.26 196.26 272.48 198.29
  Q 263.63 203.04 254.70 207.70
  Z"
/>
<path fill="#5b263c" d="
  M 393.83 50.48
  L 390.85 79.39
  Q 390.74 80.50 389.90 81.24
  Q 332.90 131.62 276.18 181.84
  Q 272.27 185.30 267.80 187.93
  Q 257.41 194.01 246.96 200.06
  L 234.30 187.69
  A 0.30 0.30 0.0 0 0 233.80 187.85
  C 233.18 190.80 233.11 193.37 230.95 195.73
  Q 227.23 199.81 223.09 204.07
  L 215.75 185.73
  L 227.75 167.19
  A 1.47 1.44 -32.7 0 0 227.97 166.24
  L 225.59 145.14
  L 232.72 142.11
  Q 233.17 142.65 233.21 143.03
  Q 233.86 149.30 234.76 155.74
  Q 234.85 156.33 235.29 155.94
  Q 244.91 147.42 254.50 138.84
  Q 256.81 136.77 259.67 135.56
  Q 305.21 116.30 351.59 96.66
  Q 352.26 96.37 352.16 95.66
  L 351.42 90.12
  L 375.21 79.69
  A 1.69 1.63 -84.4 0 0 375.96 79.05
  L 393.83 50.48
  Z"
/>
<path fill="#a0396d" d="
  M 351.42 90.12
  L 352.16 95.66
  Q 352.26 96.37 351.59 96.66
  Q 305.21 116.30 259.67 135.56
  Q 256.81 136.77 254.50 138.84
  Q 244.91 147.42 235.29 155.94
  Q 234.85 156.33 234.76 155.74
  Q 233.86 149.30 233.21 143.03
  Q 233.17 142.65 232.72 142.11
  Q 232.84 142.27 233.07 141.91
  Q 233.17 141.76 233.17 141.55
  Q 233.11 137.77 232.28 133.85
  L 231.28 125.38
  Q 231.22 124.85 231.43 124.36
  L 236.16 113.79
  A 2.21 2.19 -88.0 0 1 237.42 112.61
  L 310.06 86.03
  Q 310.48 85.87 310.51 85.43
  L 310.78 80.78
  A 1.35 1.33 -17.5 0 1 311.31 79.78
  L 329.53 65.83
  Q 330.15 66.03 330.93 65.44
  Q 339.16 59.16 347.46 53.05
  Q 347.91 52.72 347.96 53.27
  L 351.42 90.12
  Z"
/>
<path fill="#514d4c" d="
  M 329.53 65.83
  L 311.31 79.78
  A 1.35 1.33 -17.5 0 0 310.78 80.78
  L 310.51 85.43
  Q 310.48 85.87 310.06 86.03
  L 237.42 112.61
  A 2.21 2.19 -88.0 0 0 236.16 113.79
  L 231.43 124.36
  Q 231.22 124.85 231.28 125.38
  L 232.28 133.85
  L 224.88 138.43
  C 224.16 130.84 223.97 122.40 221.28 115.18
  Q 217.71 105.61 214.24 96.26
  A 2.07 2.07 0.0 0 0 213.21 95.13
  L 202.14 89.71
  L 217.13 84.55
  A 4.94 4.94 0.0 0 0 219.45 82.89
  L 233.93 64.22
  Q 234.28 63.77 234.85 63.78
  L 329.53 65.83
  Z"
/>
<path fill="#a0396d" d="
  M 202.14 89.71
  L 213.21 95.13
  A 2.07 2.07 0.0 0 1 214.24 96.26
  Q 217.71 105.61 221.28 115.18
  C 223.97 122.40 224.16 130.84 224.88 138.43
  L 225.59 145.14
  L 227.97 166.24
  A 1.47 1.44 -32.7 0 1 227.75 167.19
  L 215.75 185.73
  L 207.42 198.91
  Q 206.68 199.75 206.38 200.50
  L 199.20 207.93
  L 198.20 208.93
  Q 190.90 216.10 183.75 223.49
  C 181.59 225.73 179.68 225.92 176.79 226.63
  L 169.21 228.72
  Q 168.38 228.95 168.07 228.15
  Q 166.50 224.07 164.95 219.90
  C 162.79 214.12 161.63 208.06 160.24 202.02
  Q 159.43 198.50 159.63 194.89
  Q 160.18 184.84 160.77 174.72
  L 164.53 174.42
  Q 165.04 174.38 165.22 173.90
  Q 173.25 152.41 181.26 130.92
  Q 182.60 127.33 182.47 124.38
  C 181.39 100.28 158.77 100.36 142.06 107.12
  C 123.09 114.81 116.13 131.72 119.95 151.66
  Q 120.45 154.24 122.21 156.71
  Q 130.19 167.92 138.16 179.11
  Q 138.64 179.78 139.16 180.01
  Q 140.08 180.42 140.62 179.84
  C 140.57 181.14 140.28 182.25 140.53 183.55
  Q 143.70 200.42 146.84 217.30
  C 147.85 222.75 150.13 227.26 152.30 232.20
  Q 148.55 233.91 146.57 238.06
  C 143.22 245.06 147.79 251.36 155.32 252.13
  L 156.25 256.56
  Q 156.41 257.29 155.68 257.10
  L 152.39 256.27
  L 148.92 255.25
  A 0.39 0.39 0.0 0 0 148.44 255.74
  C 152.79 270.09 156.74 284.57 162.26 298.51
  Q 170.11 318.35 178.03 338.15
  Q 178.10 338.31 177.94 338.38
  L 177.93 338.38
  Q 177.78 338.45 177.71 338.30
  Q 156.12 291.67 134.40 245.10
  C 132.92 241.91 132.10 238.00 130.48 234.49
  L 128.57 228.85
  Q 128.41 228.36 127.95 228.12
  C 124.27 226.17 117.77 223.63 115.38 220.25
  Q 111.50 214.73 107.62 209.21
  C 102.20 201.49 98.91 191.78 95.30 183.12
  L 93.21 169.89
  Q 91.96 166.47 92.48 164.99
  Q 98.09 149.02 103.63 132.98
  Q 104.42 130.71 106.07 128.94
  Q 111.16 123.53 116.01 118.27
  L 126.26 107.51
  A 3.95 3.75 -81.1 0 1 127.13 106.84
  L 157.71 90.20
  A 5.52 5.44 -62.1 0 1 159.73 89.56
  L 192.93 85.72
  Q 193.44 85.66 193.90 85.87
  L 202.14 89.71
  Z"
/>
<path fill="#514d4c" d="
  M 116.01 118.27
  Q 111.16 123.53 106.07 128.94
  Q 104.42 130.71 103.63 132.98
  Q 98.09 149.02 92.48 164.99
  Q 91.96 166.47 93.21 169.89
  L 85.46 171.54
  C 85.01 168.46 83.99 165.66 85.14 162.59
  Q 86.21 159.71 87.25 156.58
  Q 87.47 155.91 86.78 156.07
  L 42.79 166.65
  A 0.42 0.42 0.0 0 1 42.33 166.02
  L 47.06 158.26
  A 0.56 0.56 0.0 0 0 46.84 157.47
  L 38.55 153.04
  L 106.22 102.35
  Q 106.65 102.03 106.92 102.50
  L 116.01 118.27
  Z"
/>
<path fill="#5b263c" d="
  M 160.77 174.72
  L 160.83 172.63
  A 0.44 0.44 0.0 0 0 160.25 172.20
  Q 151.03 175.21 141.80 178.07
  Q 140.74 178.39 140.62 179.84
  Q 140.08 180.42 139.16 180.01
  Q 138.64 179.78 138.16 179.11
  Q 130.19 167.92 122.21 156.71
  Q 120.45 154.24 119.95 151.66
  C 116.13 131.72 123.09 114.81 142.06 107.12
  C 158.77 100.36 181.39 100.28 182.47 124.38
  Q 182.60 127.33 181.26 130.92
  Q 173.25 152.41 165.22 173.90
  Q 165.04 174.38 164.53 174.42
  L 160.77 174.72
  Z"
/>
<path fill="#2d79c7" d="
  M 284.11 221.57
  A 0.98 0.97 -10.6 0 0 283.59 222.32
  Q 281.67 239.75 279.97 256.30
  Q 279.66 259.42 278.37 262.26
  C 266.30 288.83 254.29 315.65 240.35 341.30
  A 3.60 3.58 -5.2 0 1 239.42 342.41
  L 201.56 372.76
  Q 201.51 372.80 201.37 372.64
  L 201.36 372.63
  Q 201.27 372.53 201.37 372.44
  Q 217.47 356.46 233.90 340.80
  Q 236.03 338.77 237.28 336.18
  Q 241.47 327.48 243.83 321.80
  Q 256.68 290.84 270.19 260.17
  Q 271.47 257.26 271.78 254.08
  Q 273.57 235.49 275.85 216.96
  Q 275.91 216.47 276.35 216.24
  C 281.03 213.82 285.50 211.86 289.49 208.32
  Q 336.02 167.00 384.57 128.08
  Q 384.68 127.99 384.77 128.10
  L 384.77 128.10
  Q 384.87 128.21 384.77 128.31
  Q 339.98 173.33 292.97 216.04
  C 290.25 218.51 287.28 219.87 284.11 221.57
  Z"
/>
<path fill="#a0396d" d="
  M 38.55 153.04
  L 46.84 157.47
  A 0.56 0.56 0.0 0 1 47.06 158.26
  L 42.33 166.02
  A 0.42 0.42 0.0 0 0 42.79 166.65
  L 86.78 156.07
  Q 87.47 155.91 87.25 156.58
  Q 86.21 159.71 85.14 162.59
  C 83.99 165.66 85.01 168.46 85.46 171.54
  Q 86.06 177.31 87.27 183.05
  Q 87.31 183.23 87.39 183.33
  Q 87.58 183.57 87.70 183.48
  Q 87.50 184.41 87.74 185.01
  Q 90.46 191.66 93.24 197.91
  Q 93.61 198.74 92.80 198.35
  L 70.25 187.72
  A 2.13 2.08 -33.6 0 0 69.19 187.52
  L 21.80 190.50
  A 0.94 0.92 -17.5 0 1 20.96 190.07
  L 16.64 183.11
  A 1.19 1.18 37.7 0 1 16.51 182.11
  L 18.44 176.12
  L 27.22 148.11
  A 0.37 0.36 22.3 0 1 27.73 147.90
  Q 32.62 150.44 37.50 152.94
  Q 37.89 153.14 38.55 153.04
  Z"
/>
<path fill="#514d4c" d="
  M 10.73 161.12
  L 9.13 191.82
  A 0.88 0.88 0.0 0 0 9.66 192.67
  Q 55.71 212.08 101.46 231.39
  C 110.73 235.31 120.45 238.45 130.07 241.89
  L 130.04 246.68
  Q 130.04 247.25 129.47 247.14
  C 121.98 245.68 113.98 244.89 106.92 241.96
  Q 53.78 219.91 0.66 197.84
  Q 0.25 197.67 0.34 197.23
  L 8.42 157.27
  Q 8.54 156.70 8.85 157.18
  Q 10.36 159.46 10.73 161.12
  Z"
/>
<path fill="#5b263c" d="
  M 10.73 161.12
  L 18.44 176.12
  L 16.51 182.11
  A 1.19 1.18 37.7 0 0 16.64 183.11
  L 20.96 190.07
  A 0.94 0.92 -17.5 0 0 21.80 190.50
  L 69.19 187.52
  A 2.13 2.08 -33.6 0 1 70.25 187.72
  L 92.80 198.35
  Q 93.61 198.74 93.24 197.91
  Q 90.46 191.66 87.74 185.01
  Q 87.50 184.41 87.70 183.48
  L 95.30 183.12
  C 98.91 191.78 102.20 201.49 107.62 209.21
  Q 111.50 214.73 115.38 220.25
  C 117.77 223.63 124.27 226.17 127.95 228.12
  Q 128.41 228.36 128.57 228.85
  L 130.48 234.49
  L 130.07 241.89
  C 120.45 238.45 110.73 235.31 101.46 231.39
  Q 55.71 212.08 9.66 192.67
  A 0.88 0.88 0.0 0 1 9.13 191.82
  L 10.73 161.12
  Z"
/>
<path fill="#514d4c" d="
  M 160.77 174.72
  Q 160.18 184.84 159.63 194.89
  Q 159.43 198.50 160.24 202.02
  C 161.63 208.06 162.79 214.12 164.95 219.90
  Q 166.50 224.07 168.07 228.15
  Q 168.38 228.95 169.21 228.72
  L 176.79 226.63
  Q 177.55 226.42 177.98 227.19
  Q 178.28 227.74 177.76 228.09
  Q 176.50 228.92 177.52 230.04
  Q 177.87 230.43 177.87 230.96
  L 177.87 233.01
  Q 177.87 233.50 178.17 233.89
  Q 179.11 235.14 178.84 236.73
  A 0.83 0.82 -68.8 0 0 179.19 237.54
  Q 180.89 238.70 181.05 240.75
  Q 181.08 241.23 181.50 241.46
  Q 183.58 242.62 184.38 244.84
  C 184.72 245.79 184.38 246.51 185.02 247.49
  A 1.33 1.31 -58.7 0 1 185.24 248.42
  C 184.52 253.84 185.18 258.93 189.93 262.21
  Q 190.32 262.47 190.78 262.52
  Q 192.11 262.63 192.98 263.07
  L 187.12 268.91
  Q 186.76 269.27 186.25 269.28
  C 184.27 269.33 179.88 269.67 178.39 268.14
  Q 176.59 266.29 174.54 265.38
  L 172.37 263.70
  Q 171.68 262.75 170.76 262.28
  L 166.53 259.01
  Q 166.06 258.49 165.16 258.09
  L 162.01 255.61
  Q 159.79 254.32 159.08 250.95
  L 157.63 246.74
  Q 157.47 246.26 157.34 246.15
  L 154.38 237.91
  Q 154.31 237.11 153.79 236.74
  L 152.30 232.20
  C 150.13 227.26 147.85 222.75 146.84 217.30
  Q 143.70 200.42 140.53 183.55
  C 140.28 182.25 140.57 181.14 140.62 179.84
  Q 140.74 178.39 141.80 178.07
  Q 151.03 175.21 160.25 172.20
  A 0.44 0.44 0.0 0 1 160.83 172.63
  L 160.77 174.72
  Z"
/>
<path fill="#5b5c5b" d="
  M 215.75 185.73
  L 223.09 204.07
  L 203.53 224.92
  A 1.90 1.86 -25.1 0 0 203.01 226.31
  L 203.72 243.04
  Q 203.75 243.77 204.43 243.51
  L 206.55 242.69
  Q 207.89 244.84 205.25 246.93
  Q 204.87 247.23 205.09 247.66
  Q 210.12 257.45 199.21 261.98
  Q 194.59 261.35 192.98 263.07
  Q 192.11 262.63 190.78 262.52
  Q 190.32 262.47 189.93 262.21
  C 185.18 258.93 184.52 253.84 185.24 248.42
  A 1.33 1.31 -58.7 0 0 185.02 247.49
  C 184.38 246.51 184.72 245.79 184.38 244.84
  Q 183.58 242.62 181.50 241.46
  Q 181.08 241.23 181.05 240.75
  Q 180.89 238.70 179.19 237.54
  A 0.83 0.82 -68.8 0 1 178.84 236.73
  Q 179.11 235.14 178.17 233.89
  Q 177.87 233.50 177.87 233.01
  L 177.87 230.96
  Q 177.87 230.43 177.52 230.04
  Q 176.50 228.92 177.76 228.09
  Q 178.28 227.74 177.98 227.19
  Q 177.55 226.42 176.79 226.63
  C 179.68 225.92 181.59 225.73 183.75 223.49
  Q 190.90 216.10 198.20 208.93
  C 200.73 210.13 201.77 212.11 205.22 211.00
  Q 210.12 209.42 210.14 204.25
  C 210.16 201.72 208.38 200.71 207.42 198.91
  L 215.75 185.73
  Z
  M 198.72 232.22
  A 5.66 5.66 0.0 0 0 193.06 226.56
  A 5.66 5.66 0.0 0 0 187.40 232.22
  A 5.66 5.66 0.0 0 0 193.06 237.88
  A 5.66 5.66 0.0 0 0 198.72 232.22
  Z
  M 201.51 254.49
  A 4.68 4.68 0.0 0 0 196.83 249.81
  A 4.68 4.68 0.0 0 0 192.15 254.49
  A 4.68 4.68 0.0 0 0 196.83 259.17
  A 4.68 4.68 0.0 0 0 201.51 254.49
  Z"
/>
<path fill="#a0396d" d="
  M 246.96 200.06
  L 254.70 207.70
  L 258.17 211.26
  A 1.34 1.33 -63.7 0 1 258.54 212.36
  Q 255.98 233.74 253.98 254.85
  Q 253.63 258.51 252.30 261.70
  Q 249.99 267.21 247.38 272.60
  Q 234.90 298.35 221.93 323.87
  Q 220.57 326.55 218.38 328.61
  Q 208.16 338.24 197.74 347.67
  Q 197.29 348.09 197.42 347.49
  L 206.15 308.86
  L 222.59 236.62
  Q 222.72 236.04 222.17 236.27
  L 206.55 242.69
  L 204.43 243.51
  Q 203.75 243.77 203.72 243.04
  L 203.01 226.31
  A 1.90 1.86 -25.1 0 1 203.53 224.92
  L 223.09 204.07
  Q 227.23 199.81 230.95 195.73
  C 233.11 193.37 233.18 190.80 233.80 187.85
  A 0.30 0.30 0.0 0 1 234.30 187.69
  L 246.96 200.06
  Z"
/>
<path fill="#2d79c7" d="
  M 207.42 198.91
  C 208.38 200.71 210.16 201.72 210.14 204.25
  Q 210.12 209.42 205.22 211.00
  C 201.77 212.11 200.73 210.13 198.20 208.93
  L 199.20 207.93
  Q 203.43 211.10 206.54 208.89
  Q 208.56 207.45 208.79 205.02
  Q 209.05 202.25 206.38 200.50
  Q 206.68 199.75 207.42 198.91
  Z"
/>
<path fill="#b3d0ec" d="
  M 206.38 200.50
  Q 209.05 202.25 208.79 205.02
  Q 208.56 207.45 206.54 208.89
  Q 203.43 211.10 199.20 207.93
  L 206.38 200.50
  Z"
/>
<path fill="#2d79c7" d="
  M 117.38 271.35
  Q 112.78 270.46 108.18 269.62
  Q 103.64 268.80 99.78 267.19
  Q 52.66 247.54 6.95 224.56
  Q 6.72 224.45 6.82 224.22
  L 6.93 223.95
  Q 7.03 223.72 7.26 223.80
  Q 55.16 239.76 101.74 258.96
  C 108.52 261.76 116.04 262.52 123.20 263.98
  Q 123.69 264.08 123.90 264.53
  Q 144.36 308.60 161.24 354.15
  Q 161.29 354.27 161.18 354.32
  L 160.94 354.43
  Q 160.93 354.43 160.93 354.42
  C 144.97 326.17 133.45 303.23 118.16 271.95
  Q 117.92 271.45 117.38 271.35
  Z"
/>
<path fill="#2d79c7" d="
  M 198.72 232.22
  A 5.66 5.66 0.0 0 1 193.06 237.88
  A 5.66 5.66 0.0 0 1 187.40 232.22
  A 5.66 5.66 0.0 0 1 193.06 226.56
  A 5.66 5.66 0.0 0 1 198.72 232.22
  Z
  M 190.8953 236.1241
  A 4.47 4.31 117.8 0 0 196.7925 234.1801
  A 4.47 4.31 117.8 0 0 195.0647 228.2159
  A 4.47 4.31 117.8 0 0 189.1675 230.1599
  A 4.47 4.31 117.8 0 0 190.8953 236.1241
  Z"
/>
<ellipse fill="#b3d0ec" cx="0.00" cy="0.00" transform="translate(192.98,232.17) rotate(117.8)" rx="4.47" ry="4.31"/>
<path fill="#5b5c5b" d="
  M 152.30 232.20
  L 153.79 236.74
  C 145.76 239.40 148.65 250.27 157.22 247.54
  Q 157.71 247.38 157.63 246.74
  L 159.08 250.95
  L 155.32 252.13
  C 147.79 251.36 143.22 245.06 146.57 238.06
  Q 148.55 233.91 152.30 232.20
  Z"
/>
<path fill="#5b263c" d="
  M 206.15 308.86
  L 199.14 318.31
  C 197.79 312.99 196.55 308.03 196.31 302.48
  Q 195.86 291.78 195.58 281.07
  C 195.42 274.69 197.72 268.17 199.21 261.98
  Q 210.12 257.45 205.09 247.66
  Q 204.87 247.23 205.25 246.93
  Q 207.89 244.84 206.55 242.69
  L 222.17 236.27
  Q 222.72 236.04 222.59 236.62
  L 206.15 308.86
  Z"
/>
<path fill="#2d79c7" d="
  M 153.79 236.74
  Q 154.31 237.11 154.38 237.91
  C 149.98 238.69 149.12 244.66 153.35 246.60
  Q 155.41 247.54 157.34 246.15
  Q 157.47 246.26 157.63 246.74
  Q 157.71 247.38 157.22 247.54
  C 148.65 250.27 145.76 239.40 153.79 236.74
  Z"
/>
<path fill="#b3d0ec" d="
  M 154.38 237.91
  L 157.34 246.15
  Q 155.41 247.54 153.35 246.60
  C 149.12 244.66 149.98 238.69 154.38 237.91
  Z"
/>
<path fill="#2d79c7" d="
  M 201.51 254.49
  A 4.68 4.68 0.0 0 1 196.83 259.17
  A 4.68 4.68 0.0 0 1 192.15 254.49
  A 4.68 4.68 0.0 0 1 196.83 249.81
  A 4.68 4.68 0.0 0 1 201.51 254.49
  Z
  M 194.28 256.62
  Q 194.53 257.30 195.24 257.56
  C 200.49 259.48 202.10 252.22 197.57 251.23
  C 194.35 250.52 192.63 253.30 193.82 256.27
  Q 193.86 256.36 194.01 256.38
  Q 194.08 256.39 194.14 256.42
  Q 194.23 256.47 194.28 256.62
  Z"
/>
<path fill="#5b263c" d="
  M 159.08 250.95
  Q 159.79 254.32 162.01 255.61
  Q 158.97 260.41 160.38 264.37
  Q 162.09 269.21 167.86 269.71
  C 171.86 276.92 175.90 283.67 178.90 291.50
  Q 184.34 305.71 190.66 320.19
  Q 186.72 316.59 183.34 313.04
  C 177.73 307.13 173.86 298.42 169.84 291.25
  C 163.51 279.91 158.06 268.05 152.39 256.27
  L 155.68 257.10
  Q 156.41 257.29 156.25 256.56
  L 155.32 252.13
  L 159.08 250.95
  Z"
/>
<path fill="#b3d0ec" d="
  M 194.14 256.42
  Q 194.08 256.39 194.01 256.38
  Q 193.86 256.36 193.82 256.27
  C 192.63 253.30 194.35 250.52 197.57 251.23
  C 202.10 252.22 200.49 259.48 195.24 257.56
  Q 194.53 257.30 194.28 256.62
  Q 194.23 256.47 194.14 256.42
  Z"
/>
<path fill="#5b5c5b" d="
  M 162.01 255.61
  L 165.16 258.09
  C 159.64 265.31 169.00 270.19 172.37 263.70
  L 174.54 265.38
  Q 172.65 269.45 167.86 269.71
  Q 162.09 269.21 160.38 264.37
  Q 158.97 260.41 162.01 255.61
  Z"
/>
<path fill="#2d79c7" d="
  M 165.16 258.09
  Q 166.06 258.49 166.53 259.01
  Q 164.12 260.54 165.07 262.83
  C 166.29 265.76 170.91 265.23 170.76 262.28
  Q 171.68 262.75 172.37 263.70
  C 169.00 270.19 159.64 265.31 165.16 258.09
  Z"
/>
<path fill="#b3d0ec" d="
  M 166.53 259.01
  L 170.76 262.28
  C 170.91 265.23 166.29 265.76 165.07 262.83
  Q 164.12 260.54 166.53 259.01
  Z"
/>
<path fill="#a0396d" d="
  M 199.21 261.98
  C 197.72 268.17 195.42 274.69 195.58 281.07
  Q 195.86 291.78 196.31 302.48
  C 196.55 308.03 197.79 312.99 199.14 318.31
  L 195.51 321.99
  Q 195.15 322.36 194.64 322.34
  Q 191.19 322.18 190.66 320.19
  Q 184.34 305.71 178.90 291.50
  C 175.90 283.67 171.86 276.92 167.86 269.71
  Q 172.65 269.45 174.54 265.38
  Q 176.59 266.29 178.39 268.14
  C 179.88 269.67 184.27 269.33 186.25 269.28
  Q 186.76 269.27 187.12 268.91
  L 192.98 263.07
  Q 194.59 261.35 199.21 261.98
  Z"
/>
</svg>
